<?xml version="1.0" standalone="no"?>
<!DOCTYPE svg PUBLIC "-//W3C//DTD SVG 20010904//EN"
 "http://www.w3.org/TR/2001/REC-SVG-20010904/DTD/svg10.dtd">
<svg version="1.0" xmlns="http://www.w3.org/2000/svg"
 width="800.000000pt" height="800.000000pt" viewBox="0 0 800.000000 800.000000"
 preserveAspectRatio="xMidYMid meet">
<metadata>
Created by potrace 1.14, written by Peter Selinger 2001-2017
</metadata>
<g transform="translate(0.000000,800.000000) scale(0.100000,-0.100000)"
fill="#000000" stroke="none">
<path d="M3877 7539 c-112 -29 -187 -74 -264 -157 -51 -55 -107 -167 -123
-247 -29 -140 18 -321 108 -417 14 -16 22 -28 16 -28 -5 0 -3 -4 3 -8 8 -5
-24 -13 -75 -21 -173 -24 -421 -93 -642 -176 -220 -83 -545 -269 -706 -404
-17 -14 -52 -44 -78 -65 -171 -141 -419 -405 -516 -549 -14 -20 -28 -37 -32
-37 -5 0 -8 -4 -8 -10 0 -5 -26 -47 -59 -92 -151 -212 -312 -547 -396 -823
-15 -49 -31 -101 -35 -115 -50 -149 -91 -469 -92 -725 -1 -180 7 -389 16 -404
2 -3 7 -37 11 -76 3 -38 10 -88 15 -110 5 -22 11 -53 14 -70 3 -16 8 -43 11
-59 15 -78 89 -314 134 -429 21 -54 142 -292 161 -317 l18 -24 1269 -2 c1352
-1 1313 -2 1328 46 9 27 -17 65 -58 86 -29 16 -107 17 -897 18 -852 1 -866 2
-910 22 -117 54 -177 165 -148 273 21 75 99 141 168 141 16 0 30 2 30 5 0 3
-15 45 -34 93 -18 48 -36 103 -40 122 -3 19 -8 46 -11 60 -6 30 -7 206 -1 235
2 11 7 55 11 98 l7 77 -284 1 c-155 1 -314 1 -351 1 -42 0 -70 5 -72 12 -8 24
-10 134 -3 130 4 -3 8 0 8 5 0 6 -4 11 -8 11 -13 0 -8 39 6 45 8 3 10 0 6 -8
-6 -9 -4 -9 7 -1 16 12 98 12 118 -1 9 -5 12 -4 8 2 -5 8 68 10 232 7 l239 -4
21 26 c27 34 27 64 1 92 -25 27 2 24 -280 28 -256 3 -259 3 -286 24 -16 12
-17 12 -6 0 18 -20 15 -27 -10 -24 -13 1 -27 3 -31 3 -5 1 -5 7 -1 14 6 8 3 8
-9 -1 -15 -13 -16 -8 -12 50 2 34 7 81 11 103 4 22 7 52 8 68 1 28 11 36 18
15 3 -8 7 -6 11 5 4 10 2 16 -6 14 -7 -1 -11 7 -10 18 5 52 11 76 22 88 6 8 8
16 5 20 -11 10 7 48 19 40 8 -5 8 -2 0 9 -7 8 -9 18 -5 22 7 8 9 14 11 47 0
11 5 18 10 15 4 -3 6 6 3 19 -2 15 0 25 7 25 6 0 10 3 10 8 -3 14 14 72 20 72
4 0 8 9 9 20 4 45 6 50 21 50 13 0 13 2 2 9 -9 6 -10 11 -2 15 6 4 9 11 6 15
-2 5 3 17 11 27 9 10 12 13 8 5 -5 -10 -3 -12 5 -7 9 6 9 11 -1 24 -11 13 -10
15 4 9 10 -3 20 -1 24 5 4 7 3 8 -4 4 -13 -8 -12 5 3 57 4 15 12 27 18 27 6 0
7 3 4 7 -4 3 -1 13 7 22 7 9 18 30 23 46 6 17 16 29 22 27 7 -1 10 2 7 7 -6 9
11 59 24 71 3 3 11 16 18 29 8 13 23 39 33 58 37 66 52 84 65 79 17 -7 29 13
16 26 -10 10 25 77 42 78 5 0 2 -8 -5 -17 -12 -14 -9 -13 16 2 41 26 43 29 18
21 -28 -9 -28 -5 -5 34 14 22 21 27 30 18 8 -8 9 -5 5 11 -3 12 -1 21 6 21 6
0 11 5 11 11 0 6 6 16 13 23 7 8 28 32 47 54 18 23 37 39 42 36 5 -3 7 -1 6 4
-4 12 59 87 125 150 27 26 59 57 72 70 22 22 41 30 30 13 -9 -15 13 -23 32
-11 16 10 16 10 -2 5 -16 -4 -21 0 -21 14 0 11 5 19 11 18 5 -1 9 4 7 11 -2
11 10 16 31 13 4 0 6 4 5 10 -2 6 3 14 10 16 8 3 10 -2 6 -14 -5 -14 -4 -15 4
-4 6 8 8 20 5 28 -3 7 0 14 6 14 6 1 17 2 24 3 6 1 18 -5 26 -14 7 -8 5 -2 -4
14 -16 27 -16 29 -1 23 9 -4 15 -3 11 2 -3 5 7 19 22 30 16 11 34 26 41 31 7
6 18 8 25 4 6 -4 9 -4 5 1 -10 10 26 36 44 32 7 -2 9 -2 5 1 -11 6 13 32 29
32 8 0 14 4 14 9 0 5 7 12 16 15 13 5 14 3 6 -7 -7 -8 -7 -18 -2 -27 7 -10 10
-11 10 -2 0 6 -1 13 -2 15 -5 7 24 47 31 42 5 -3 11 2 15 10 3 8 10 15 17 15
6 0 24 9 40 21 16 11 36 22 43 23 7 1 25 10 39 19 15 10 27 15 27 11 0 -4 7
-1 16 6 26 22 108 59 118 53 5 -3 14 1 20 9 6 8 13 15 16 15 3 0 23 8 45 18
22 9 45 18 50 19 6 1 15 5 21 8 6 4 21 9 35 12 13 2 41 12 62 20 21 9 37 12
37 6 0 -5 5 -10 11 -10 5 0 8 4 4 9 -3 5 -1 12 5 16 5 3 10 0 10 -7 0 -10 2
-10 8 -1 13 21 98 43 113 29 9 -8 10 -8 5 2 -4 7 -1 12 8 13 17 2 35 5 39 9 1
1 10 3 20 5 11 2 15 -1 10 -8 -4 -7 0 -6 10 1 9 8 31 16 49 18 18 2 52 8 76
14 24 6 48 8 53 4 5 -3 16 -1 23 5 10 9 15 8 19 -3 3 -8 1 -17 -6 -19 -7 -2
-5 -3 3 -3 8 1 14 9 12 17 -1 9 5 16 13 16 8 0 15 -4 15 -9 0 -4 5 -8 11 -8 5
0 7 5 4 10 -3 6 0 10 9 10 8 0 17 -6 19 -12 3 -8 6 -5 6 5 1 10 6 15 11 12 6
-4 8 -12 4 -18 -3 -7 1 -4 9 6 15 18 67 24 67 6 0 -5 -5 -7 -12 -3 -7 4 -8 3
-4 -4 4 -6 13 -9 21 -6 8 4 13 10 10 14 -8 13 98 10 114 -3 12 -9 13 -9 7 1
-5 8 0 12 13 12 12 0 21 -5 21 -11 0 -5 -5 -7 -12 -3 -7 5 -8 3 -3 -6 7 -11
10 -10 19 1 15 19 41 22 66 9 15 -8 20 -8 20 1 0 8 4 8 14 -1 8 -6 12 -19 9
-28 -4 -14 -3 -15 5 -2 6 8 9 17 6 21 -2 4 5 7 16 6 14 -1 19 -6 15 -17 -3 -9
1 -8 10 4 8 11 15 16 15 10 0 -5 24 -10 53 -12 28 -1 54 -7 55 -12 2 -6 8 -10
13 -10 6 0 7 6 3 13 -6 9 -5 9 8 0 8 -7 18 -10 21 -6 4 3 7 0 7 -8 0 -10 3
-11 8 -2 5 8 15 8 40 -3 21 -8 31 -18 26 -25 -4 -8 -3 -9 5 -5 6 4 9 12 6 17
-5 7 27 6 45 -2 9 -4 24 -7 43 -8 10 0 22 -11 27 -23 7 -18 9 -19 9 -5 1 19
16 23 26 7 3 -5 15 -10 25 -10 10 0 31 -5 47 -12 15 -6 33 -12 38 -14 6 -1 33
-11 60 -22 39 -14 49 -23 47 -38 -3 -19 -3 -19 11 0 10 13 16 16 21 7 4 -6 12
-9 17 -6 5 4 9 2 9 -3 0 -9 20 -18 58 -27 29 -7 102 -48 102 -56 0 -6 4 -7 10
-4 9 5 68 -20 80 -34 3 -3 33 -19 67 -36 63 -30 82 -48 41 -38 -13 3 -21 3
-18 0 3 -3 21 -9 39 -12 44 -8 53 -14 45 -28 -4 -7 -4 -9 1 -5 9 8 36 -5 83
-40 25 -19 30 -27 20 -34 -9 -5 -5 -7 12 -6 15 2 24 -2 23 -9 -2 -7 3 -10 11
-7 8 3 21 -5 30 -18 9 -13 19 -22 22 -20 8 5 54 -35 54 -48 0 -6 5 -8 12 -4 7
5 9 2 5 -9 -4 -11 -2 -14 7 -11 8 3 33 -12 56 -33 23 -21 53 -48 66 -61 24
-21 25 -50 2 -36 -6 4 -8 2 -4 -4 3 -5 1 -12 -6 -14 -7 -3 -3 -7 9 -10 17 -4
20 -2 16 10 -5 11 -3 13 7 7 9 -5 11 -4 6 3 -4 7 -3 12 3 12 12 0 21 -14 26
-41 3 -12 7 -24 11 -28 4 -3 4 2 1 12 -5 13 -3 17 5 14 7 -2 12 -11 12 -20 -1
-9 1 -16 5 -15 18 2 22 -3 12 -16 -9 -11 -6 -12 14 -8 14 2 25 0 25 -5 0 -6
22 -35 50 -64 27 -30 48 -59 45 -66 -2 -7 1 -15 7 -19 7 -4 8 -3 4 4 -4 7 -2
12 3 12 10 0 15 -14 12 -33 0 -4 2 -6 6 -5 5 2 9 0 11 -4 2 -4 16 -21 32 -39
17 -17 27 -36 23 -42 -3 -6 -1 -7 6 -3 7 5 16 -4 24 -23 7 -17 16 -28 20 -24
7 6 10 -10 5 -23 -2 -3 5 -10 14 -15 9 -5 31 -35 49 -67 18 -31 39 -63 46 -70
12 -12 17 -28 11 -35 -2 -1 7 -13 20 -27 12 -13 22 -31 22 -41 0 -9 7 -20 16
-23 8 -3 12 -10 9 -16 -3 -5 -2 -10 3 -10 9 0 25 -37 23 -52 -1 -5 3 -8 8 -8
8 0 22 -32 25 -55 1 -5 3 -12 6 -15 9 -9 40 -80 40 -91 0 -6 -5 -7 -12 -3 -7
5 -8 3 -4 -5 5 -7 11 -10 14 -6 3 3 14 -14 23 -37 12 -31 14 -47 6 -56 -7 -10
-7 -12 2 -10 7 2 18 -14 25 -34 8 -21 12 -38 10 -38 -1 0 4 -16 12 -35 16 -40
17 -48 5 -40 -5 3 -13 1 -16 -5 -4 -6 -3 -10 2 -9 24 4 31 -5 39 -48 8 -51 10
-61 14 -65 2 -3 4 -12 19 -93 17 -84 22 -129 24 -214 l2 -74 -301 -1 c-323 -1
-325 -1 -345 -53 -12 -32 4 -68 38 -81 19 -8 119 -10 320 -8 262 3 293 1 297
-13 3 -13 2 -124 -3 -178 -1 -10 -124 -13 -579 -13 -507 0 -580 -2 -600 -16
-24 -16 -28 -44 -12 -74 14 -26 42 -40 109 -55 51 -12 87 -17 191 -31 19 -3
53 -7 75 -10 22 -3 51 -7 65 -9 14 -2 52 -6 85 -10 111 -11 150 -16 175 -20
107 -18 144 -29 208 -62 187 -93 273 -295 212 -495 -49 -161 -176 -266 -400
-332 -47 -13 -97 -29 -112 -35 -49 -18 -57 -66 -19 -105 20 -19 32 -20 298
-21 153 0 285 1 294 3 18 4 64 79 141 230 31 62 57 114 57 115 0 1 5 16 12 32
15 39 79 226 84 245 2 8 15 62 28 120 14 58 28 123 32 145 4 22 8 49 10 60 2
11 6 40 10 65 3 25 8 51 11 58 17 53 25 467 12 632 -5 71 -25 200 -54 355 -30
165 -114 417 -209 628 -205 456 -541 888 -919 1182 -21 17 -44 35 -50 41 -16
15 -265 184 -271 184 -3 0 -24 12 -48 27 -74 48 -328 169 -442 211 -160 60
-363 118 -500 143 -66 13 -121 26 -123 30 -2 5 -11 5 -20 1 -9 -3 0 14 21 38
163 191 151 494 -28 681 -43 45 -119 98 -177 122 -81 34 -208 41 -301 16z
m-91 -273 c0 -14 -5 -21 -9 -17 -4 4 -5 15 -1 24 9 24 12 21 10 -7z m111 -24
c4 -54 5 -97 3 -107 -1 -5 -2 -12 -1 -15 2 -5 3 -225 2 -267 -1 -16 -7 -23
-22 -23 -20 0 -20 3 -18 215 2 174 5 215 16 215 8 0 11 5 8 10 -4 6 -11 7 -17
4 -7 -5 -8 -2 -3 5 11 18 29 -3 32 -37z m207 -12 c-6 -6 -10 -3 -10 10 0 13 4
16 10 10 7 -7 7 -13 0 -20z m-119 2 c-3 -3 -11 0 -18 7 -9 10 -8 11 6 5 10 -3
15 -9 12 -12z m-185 -18 c0 -3 -6 -2 -12 2 -10 6 -10 4 -2 -7 8 -9 11 -76 11
-196 l0 -183 -24 0 -24 0 2 172 c0 116 4 178 12 187 9 12 9 13 -1 7 -10 -6
-12 8 -3 42 2 5 41 -18 41 -24z m-125 6 c-3 -5 0 -10 7 -10 9 0 9 -3 -2 -10
-8 -5 -10 -10 -5 -10 15 0 16 -340 1 -340 -6 0 -4 -5 4 -11 12 -8 10 -9 -10
-7 l-25 3 -3 153 c-2 102 1 158 8 167 8 10 8 15 0 20 -8 5 -8 11 1 21 6 8 8
14 3 14 -5 0 -2 5 6 10 19 12 23 12 15 0z m315 -11 c0 6 4 11 8 11 4 0 8 -16
8 -35 0 -19 -4 -35 -8 -35 -5 0 -6 11 -4 25 3 14 1 23 -4 20 -4 -3 -7 -16 -5
-30 1 -14 -3 -25 -9 -25 -8 0 -8 -2 0 -8 14 -8 13 -54 -1 -64 -6 -5 -5 -8 2
-8 7 0 10 -7 7 -17 -4 -13 -3 -14 3 -5 5 7 9 33 8 57 0 25 2 45 6 45 12 0 5
-119 -8 -125 -7 -2 -13 0 -13 6 0 6 -3 8 -7 6 -5 -3 -8 15 -8 39 -1 24 3 44 8
44 4 0 5 6 0 13 -10 16 -11 28 -2 53 4 13 3 27 -4 35 -10 11 -9 11 6 0 11 -9
17 -10 17 -2z m125 -49 c-3 -5 -12 -10 -18 -10 -7 0 -6 4 3 10 19 12 23 12 15
0z m-8 -47 c-14 -14 -19 -15 -29 -4 -11 10 -10 11 3 6 10 -4 20 -2 24 4 3 6 9
11 13 11 3 0 -1 -8 -11 -17z m96 -28 c-7 -21 -12 -19 -10 4 0 11 5 18 9 15 4
-3 5 -11 1 -19z m-93 -10 c0 -8 -2 -15 -4 -15 -2 0 -6 7 -10 15 -3 8 -1 15 4
15 6 0 10 -7 10 -15z m-20 -15 c0 -5 -5 -10 -11 -10 -5 0 -7 5 -4 10 3 6 8 10
11 10 2 0 4 -4 4 -10z m17 -24 c-3 -8 -1 -17 6 -20 8 -3 8 -5 1 -5 -6 -1 -18
7 -25 16 -10 11 -10 14 -1 9 6 -4 12 -2 12 3 0 6 3 11 6 11 3 0 4 -6 1 -14z
m-110 -38 c-9 -4 -14 -15 -11 -23 4 -8 9 -13 13 -10 4 2 8 -3 8 -11 0 -9 -6
-13 -15 -9 -13 5 -13 3 -1 -11 19 -23 19 -92 0 -99 -23 -9 -36 11 -20 31 8 10
10 15 4 12 -6 -4 -10 19 -10 62 0 65 1 67 24 67 20 0 21 -1 8 -9z m93 2 c0 -5
-2 -10 -4 -10 -3 0 -8 5 -11 10 -3 6 -1 10 4 10 6 0 11 -4 11 -10z m124 1 c-9
-9 -34 -9 -34 -1 0 5 9 8 20 7 10 -1 17 -3 14 -6z m-114 -36 c5 3 7 -2 6 -11
-1 -9 -11 -21 -22 -26 -18 -9 -18 -9 0 6 18 14 15 20 -6 17 -4 0 -4 7 -1 16 4
11 8 13 11 5 2 -7 7 -10 12 -7z m11 -49 c-9 -10 -9 -16 -1 -21 8 -5 6 -14 -7
-28 -15 -17 -15 -19 -2 -15 9 4 16 1 16 -6 0 -10 -19 -13 -46 -7 -2 1 3 8 10
17 17 21 20 44 6 44 -6 0 -2 7 9 15 24 18 30 19 15 1z m103 2 c-3 -4 -12 -8
-20 -8 -8 0 -14 4 -14 8 0 4 9 8 19 8 11 0 17 -4 15 -8z m6 -63 c0 -2 -9 -3
-19 -2 -11 0 -18 5 -15 9 4 6 34 0 34 -7z m-385 -205 c-8 -12 5 -13 24 -1 9 6
22 6 32 0 12 -6 20 -5 24 1 9 14 27 1 21 -15 -2 -7 2 -16 10 -19 11 -4 13 1
10 18 -4 20 0 24 18 22 29 -4 76 -35 76 -52 0 -18 -17 -27 -26 -13 -4 8 -3 9
4 5 7 -4 12 0 12 10 0 10 -3 15 -6 12 -3 -4 -14 2 -25 13 -10 10 -24 19 -31
19 -6 0 -8 -3 -5 -6 3 -4 2 -15 -3 -25 -6 -11 -6 -20 -1 -24 5 -3 12 4 16 15
6 20 25 19 25 -1 0 -6 -4 -8 -9 -5 -5 3 -12 -1 -15 -10 -5 -12 -10 -14 -20 -5
-7 6 -16 8 -20 4 -4 -4 -33 -8 -65 -8 -31 -1 -63 -5 -70 -9 -8 -5 -16 -4 -21
4 -5 7 -10 8 -14 2 -3 -5 -16 -10 -28 -11 -47 -3 -103 -9 -103 -11 0 -1 -8 -3
-17 -5 -10 -2 -18 1 -18 7 0 6 7 8 15 5 8 -4 17 -2 20 3 3 4 -6 7 -20 5 -27
-2 -30 2 -15 25 7 12 10 12 10 1 0 -8 6 -11 15 -7 9 3 18 -1 21 -9 5 -11 11
-12 25 -4 14 7 19 6 19 -2 0 -8 4 -8 13 -1 6 5 22 8 34 6 l22 -4 -22 23 c-14
15 -26 20 -34 15 -6 -5 -14 -5 -18 2 -3 5 -12 10 -18 10 -8 0 -8 -3 -2 -8 16
-12 16 -32 0 -32 -8 0 -14 5 -12 12 1 8 -15 12 -50 12 -57 0 -75 13 -20 15 45
1 82 7 95 15 6 3 13 2 17 -4 4 -6 12 -7 18 -3 16 10 87 12 87 3 0 -4 -8 -14
-17 -21 -17 -13 -17 -13 -3 5 13 18 13 19 0 11 -22 -14 -41 -15 -34 -3 5 7 2
8 -5 4 -9 -6 -8 -13 5 -27 16 -18 17 -18 44 4 15 12 28 24 28 27 0 13 2 20 8
20 3 0 2 -4 -1 -10z m228 -9 c-4 -15 10 -14 25 1 7 7 12 8 12 3 0 -6 5 -3 10
5 7 11 10 11 10 2 0 -7 5 -10 10 -7 6 3 10 1 10 -4 0 -6 -10 -9 -22 -7 -12 1
-29 -3 -37 -11 -9 -10 -16 -11 -21 -4 -3 6 -14 17 -25 24 -17 13 -16 14 6 12
13 -1 23 -8 22 -14z m119 -11 c-4 -11 0 -10 17 4 17 16 21 17 16 4 -10 -25
-30 -28 -48 -8 -14 17 -14 19 3 17 12 -1 16 -6 12 -17z m102 12 c3 -5 0 -9 -7
-9 -7 0 -20 -4 -29 -8 -11 -4 -18 -3 -18 5 0 6 4 9 8 6 4 -2 14 -1 22 5 18 11
18 11 24 1z m-118 -46 c2 -14 1 -26 -3 -26 -5 0 -9 14 -9 31 -2 35 5 33 12 -5z
m146 27 c-6 -2 -9 -10 -6 -15 4 -7 2 -8 -5 -4 -13 9 -5 26 12 25 9 0 8 -2 -1
-6z m69 -14 c9 -17 8 -20 -2 -14 -9 6 -11 3 -6 -9 4 -10 3 -15 -4 -11 -5 4 -7
16 -3 27 4 14 2 18 -5 14 -6 -4 -11 -2 -11 3 0 19 19 12 31 -10z m24 11 c-3
-5 -1 -10 6 -10 7 0 10 -3 6 -6 -9 -9 -28 6 -22 17 4 5 8 9 11 9 3 0 2 -4 -1
-10z m-830 -13 c14 -2 19 -10 20 -31 0 -31 -11 -36 -82 -38 -13 0 -23 -4 -23
-8 0 -5 -9 -7 -21 -5 -11 2 -31 -1 -45 -7 -19 -9 -30 -9 -44 0 -16 10 -18 9
-13 -4 3 -8 2 -14 -3 -13 -5 1 -16 0 -24 -3 -27 -10 -112 -31 -126 -31 -8 0
-14 -5 -14 -10 0 -6 -3 -8 -6 -4 -4 3 -19 0 -34 -8 -31 -16 -45 -9 -28 14 10
14 10 14 -2 3 -8 -7 -15 -18 -15 -24 0 -13 -73 -40 -86 -32 -5 3 -9 1 -9 -5 0
-8 -44 -27 -75 -33 -14 -2 -349 -170 -355 -178 -3 -4 -13 -9 -23 -13 -18 -7
-220 -141 -243 -162 -7 -5 -29 -23 -50 -40 -57 -45 -254 -225 -292 -267 -19
-21 -51 -56 -71 -77 -20 -22 -43 -47 -51 -58 -8 -10 -48 -57 -88 -105 -88
-104 -243 -337 -303 -452 -24 -47 -47 -82 -53 -79 -5 3 -6 2 -3 -4 3 -5 -7
-36 -22 -69 -40 -83 -73 -156 -75 -169 -2 -5 -10 -27 -19 -49 -9 -21 -17 -44
-17 -50 0 -6 -6 -20 -14 -31 -7 -11 -15 -24 -17 -30 -2 -5 -8 -9 -14 -7 -5 2
-4 -2 3 -9 15 -16 16 -33 0 -23 -6 4 -8 3 -5 -2 8 -14 -24 -135 -34 -129 -4 3
-7 -7 -5 -22 3 -26 -20 -114 -37 -140 -4 -6 -3 -14 3 -18 6 -4 7 -12 3 -18 -4
-7 -8 -19 -8 -27 0 -8 -6 -16 -12 -16 -7 -1 -18 -2 -24 -3 -5 0 -8 -5 -4 -11
3 -5 11 -7 18 -4 7 2 13 -4 14 -16 1 -11 -3 -20 -8 -20 -6 0 -7 5 -4 10 3 6 3
10 -2 11 -4 0 -21 2 -36 4 -24 3 -27 2 -16 -11 7 -8 18 -13 25 -10 9 3 11 0 7
-11 -4 -11 -2 -14 5 -9 7 4 12 2 12 -3 0 -17 -15 -13 -35 9 -17 19 -19 19 -32
2 -8 -9 -11 -11 -7 -3 4 8 8 30 9 49 1 20 7 38 14 40 9 3 9 8 -1 20 -9 11 -9
14 -1 9 9 -6 11 3 8 33 -2 22 0 40 5 40 4 0 7 8 5 18 -1 9 2 22 7 29 5 7 7 17
4 22 -4 5 -2 12 3 16 5 3 8 14 6 25 -2 11 1 20 7 20 5 0 8 6 5 14 -3 8 1 17 8
20 8 3 14 18 14 33 -1 24 4 54 11 73 1 3 2 8 1 13 0 4 3 7 7 7 4 0 9 10 9 23
3 42 47 147 61 142 9 -3 10 0 4 11 -6 11 -3 29 9 55 11 21 19 43 19 49 0 5 5
10 10 10 6 0 9 3 8 8 -5 15 25 71 35 65 6 -3 7 -1 3 5 -8 13 81 192 95 192 6
0 8 4 5 9 -3 5 3 20 14 34 11 14 20 28 20 32 0 18 223 334 286 405 8 8 33 37
56 64 90 103 291 296 302 289 6 -3 8 -2 3 2 -9 10 22 47 34 39 5 -3 9 -1 9 4
0 12 166 144 208 166 17 9 36 22 44 29 21 21 189 120 204 120 8 0 14 4 14 8 0
11 69 41 80 34 6 -4 9 -1 8 5 -2 7 32 27 75 46 42 18 77 31 77 28 0 -3 7 2 16
11 9 8 24 13 34 10 11 -3 20 0 24 10 3 8 16 15 29 15 13 0 27 4 33 9 10 9 126
48 159 53 11 2 22 6 25 10 3 4 15 9 25 11 11 1 25 6 31 9 6 4 21 6 33 3 11 -2
21 1 21 7 0 6 9 8 20 5 10 -3 20 -1 22 3 3 8 55 21 96 23 12 0 22 5 22 11 0 5
16 -7 35 -29 20 -21 38 -35 42 -31 3 3 1 6 -5 6 -7 0 -12 5 -12 11 0 5 5 7 10
4 6 -3 10 -1 10 5 0 7 -7 9 -16 6 -10 -4 -14 -1 -12 6 3 7 10 13 16 13 5 0 14
3 18 7 3 4 -3 6 -15 3 -11 -2 -21 0 -21 6 0 5 12 7 28 4 15 -4 36 -7 47 -8z
m553 4 c11 -7 10 -9 -3 -14 -9 -4 -14 -3 -10 2 3 5 -1 12 -7 14 -7 3 -8 6 -3
6 6 0 16 -3 23 -8z m156 -6 c3 -8 1 -15 -4 -15 -6 0 -10 7 -10 15 0 8 2 15 4
15 2 0 6 -7 10 -15z m-789 -5 c3 -5 2 -10 -4 -10 -5 0 -13 5 -16 10 -3 6 -2
10 4 10 5 0 13 -4 16 -10z m239 1 c3 -4 -4 -7 -14 -8 -11 -1 -22 2 -24 6 -3 4
4 7 14 8 11 1 22 -2 24 -6z m359 -5 c4 -10 0 -12 -15 -8 -15 4 -17 7 -6 13 17
11 15 11 21 -5z m127 4 c-8 -5 -22 -9 -30 -9 -10 0 -8 3 5 9 27 12 43 12 25 0z
m233 -14 c4 -10 1 -13 -8 -9 -8 3 -12 9 -9 14 7 12 11 11 17 -5z m107 10 c0
-2 -7 -7 -16 -10 -8 -3 -12 -2 -9 4 6 10 25 14 25 6z m-326 -14 c3 -5 -1 -9
-9 -9 -8 0 -12 4 -9 9 3 4 7 8 9 8 2 0 6 -4 9 -8z m31 -2 c3 -5 1 -10 -4 -10
-6 0 -11 5 -11 10 0 6 2 10 4 10 3 0 8 -4 11 -10z m320 0 c3 -5 1 -10 -4 -10
-6 0 -11 5 -11 10 0 6 2 10 4 10 3 0 8 -4 11 -10z m-175 -14 c0 -2 -7 -7 -16
-10 -8 -3 -12 -2 -9 4 6 10 25 14 25 6z m320 -44 c0 -5 -7 -9 -15 -9 -8 0 -12
4 -9 9 3 4 9 8 15 8 5 0 9 -4 9 -8z m-2910 -1452 c0 -5 -2 -10 -4 -10 -3 0 -8
5 -11 10 -3 6 -1 10 4 10 6 0 11 -4 11 -10z m-720 -1035 c10 -12 8 -16 -15
-25 -15 -6 -30 -8 -33 -6 -2 3 7 8 22 12 14 3 23 10 20 16 -3 5 -13 7 -21 4
-8 -3 -11 -1 -8 4 9 14 21 12 35 -5z m40 -35 c0 -5 -7 -7 -15 -4 -8 4 -15 8
-15 10 0 2 7 4 15 4 8 0 15 -4 15 -10z m-55 -10 c-3 -5 -12 -10 -18 -10 -7 0
-6 4 3 10 19 12 23 12 15 0z m-15 -35 c0 -8 -2 -15 -4 -15 -2 0 -6 7 -10 15
-3 8 -1 15 4 15 6 0 10 -7 10 -15z m40 11 c0 -2 -7 -7 -16 -10 -8 -3 -12 -2
-9 4 6 10 25 14 25 6z m20 -42 c0 -8 -19 -13 -24 -6 -3 5 1 9 9 9 8 0 15 -2
15 -3z m657 -907 c12 -29 5 -60 -12 -53 -9 3 -12 0 -9 -8 3 -7 -2 -16 -11 -20
-11 -4 -14 -2 -9 7 5 9 4 9 -5 1 -31 -29 -79 22 -67 71 12 49 92 50 113 2z"/>
<path d="M3985 6910 c-3 -5 -2 -18 4 -27 7 -14 9 -12 8 10 -2 30 -3 31 -12 17z"/>
<path d="M3868 6632 c-3 -11 -1 -26 4 -33 8 -11 9 -10 5 3 -4 11 -1 15 11 13
9 -2 24 -4 32 -4 13 -1 13 -2 0 -11 -8 -5 -10 -10 -5 -10 6 0 16 4 23 8 9 6 5
12 -15 21 -15 7 -30 12 -32 11 -2 -1 -7 4 -11 10 -5 8 -9 5 -12 -8z"/>
<path d="M3915 6640 c-3 -5 -1 -10 4 -10 6 0 11 5 11 10 0 6 -2 10 -4 10 -3 0
-8 -4 -11 -10z"/>
<path d="M3840 6630 c-13 -9 -13 -11 0 -20 9 -6 10 -10 3 -10 -6 0 -15 5 -18
10 -5 8 -11 7 -21 -1 -16 -13 -8 -33 9 -22 7 4 19 6 28 5 12 -2 17 4 15 23 0
14 -1 25 -1 25 0 0 -7 -5 -15 -10z"/>
<path d="M3549 6599 c-8 -23 -4 -46 8 -46 9 0 10 4 3 11 -5 5 -10 15 -10 21 1
5 10 -1 20 -14 11 -13 20 -19 20 -14 0 10 -39 49 -41 42z"/>
<path d="M3400 6580 c-8 -5 -12 -12 -9 -15 4 -3 12 1 19 10 14 17 11 19 -10 5z"/>
<path d="M3411 6561 c-23 -24 -25 -24 -32 -5 -6 14 -8 15 -8 3 -1 -9 2 -19 5
-22 8 -7 46 11 56 27 5 8 8 7 8 -1 0 -7 5 -13 11 -13 5 0 7 5 4 10 -10 17 7
11 22 -7 13 -16 13 -16 3 5 -7 14 -17 21 -25 18 -8 -3 -15 -2 -17 2 -2 4 -14
-4 -27 -17z"/>
<path d="M3337 6537 c4 -7 -1 -8 -12 -3 -15 5 -16 4 -5 -9 7 -9 13 -14 14 -13
1 2 7 10 14 19 9 13 9 16 -3 16 -8 0 -11 -5 -8 -10z"/>
<path d="M3415 6530 c-3 -6 1 -7 9 -4 18 7 21 14 7 14 -6 0 -13 -4 -16 -10z"/>
<path d="M3216 6513 c-6 -14 -5 -15 5 -6 7 7 10 15 7 18 -3 3 -9 -2 -12 -12z"/>
<path d="M3176 6498 c3 -5 10 -6 15 -3 13 9 11 12 -6 12 -8 0 -12 -4 -9 -9z"/>
<path d="M3275 6500 c-16 -7 -17 -9 -3 -9 9 -1 20 4 23 9 7 11 7 11 -20 0z"/>
<path d="M3056 6473 c-6 -14 -5 -15 5 -6 7 7 10 15 7 18 -3 3 -9 -2 -12 -12z"/>
<path d="M3087 6479 c7 -7 15 -10 18 -7 3 3 -2 9 -12 12 -14 6 -15 5 -6 -5z"/>
<path d="M2987 6439 c7 -7 15 -10 18 -7 3 3 -2 9 -12 12 -14 6 -15 5 -6 -5z"/>
<path d="M3020 6446 c0 -2 8 -10 18 -17 15 -13 16 -12 3 4 -13 16 -21 21 -21
13z"/>
<path d="M1275 4670 c-4 -6 -11 -7 -17 -4 -7 4 -8 2 -4 -5 6 -9 11 -9 22 0 14
11 18 19 10 19 -3 0 -8 -5 -11 -10z"/>
<path d="M1202 4598 c-15 -15 -15 -28 0 -28 6 0 8 3 5 7 -4 3 -2 12 4 20 14
16 7 17 -9 1z"/>
<path d="M1240 4580 c-9 -6 -10 -10 -3 -10 6 0 15 5 18 10 8 12 4 12 -15 0z"/>
<path d="M1159 4473 c-13 -17 -13 -17 6 -3 11 8 22 16 24 17 2 2 0 3 -6 3 -6
0 -17 -8 -24 -17z"/>
<path d="M1188 4451 c4 -10 1 -12 -9 -6 -8 4 -11 4 -6 0 13 -15 43 -12 43 5 0
9 -8 16 -17 16 -11 0 -15 -6 -11 -15z"/>
<path d="M1145 4400 c-3 -6 1 -7 9 -4 18 7 21 14 7 14 -6 0 -13 -4 -16 -10z"/>
<path d="M1145 4377 c-18 -14 -13 -38 8 -36 9 0 9 2 0 6 -22 8 -14 25 10 19
12 -3 16 -3 9 0 -6 3 -10 10 -6 15 7 13 1 11 -21 -4z"/>
<path d="M1114 4328 c-4 -6 -3 -8 3 -5 6 4 14 0 17 -9 3 -8 2 -12 -3 -9 -11 6
-25 -13 -27 -37 -1 -10 -3 -19 -4 -20 -7 -9 -5 -60 3 -65 5 -3 4 -9 -3 -13 -8
-5 -7 -9 5 -13 11 -5 14 -3 10 6 -4 6 4 1 16 -13 14 -16 20 -19 16 -8 -3 10
-2 20 4 24 7 4 6 10 -1 19 -8 9 -8 15 0 20 10 6 8 34 -5 68 -6 13 -3 16 9 11
9 -3 13 -11 9 -18 -3 -6 -2 -7 2 -3 5 4 10 13 11 20 1 7 3 18 5 26 2 7 -2 16
-10 18 -9 4 -11 0 -6 -16 4 -12 2 -21 -4 -21 -10 0 -15 13 -13 32 2 12 -27 17
-34 6z m32 -95 c2 -12 -1 -25 -6 -28 -8 -5 -8 -11 0 -20 7 -8 7 -16 2 -19 -14
-8 -36 22 -38 51 0 14 5 27 12 30 8 3 14 9 14 15 0 5 -4 7 -9 4 -8 -5 -8 9 -1
34 2 7 21 -42 26 -67z"/>
<path d="M1120 4240 c-13 -9 -13 -10 0 -10 13 0 13 -1 0 -11 -12 -8 -12 -10
-1 -7 8 2 15 12 17 21 3 20 3 19 -16 7z"/>
<path d="M1110 4196 c0 -2 8 -10 18 -17 15 -13 16 -12 3 4 -13 16 -21 21 -21
13z"/>
<path d="M1079 4134 c-10 -13 -10 -17 2 -25 22 -14 35 -10 14 4 -14 11 -15 16
-5 22 9 6 11 4 5 -5 -6 -10 -4 -12 9 -7 10 4 20 7 22 7 2 0 4 4 4 8 0 14 -38
11 -51 -4z"/>
<path d="M3985 6279 c-4 -6 -5 -12 -2 -15 2 -3 7 2 10 11 7 17 1 20 -8 4z"/>
<path d="M4011 6274 c0 -11 3 -14 6 -6 3 7 2 16 -1 19 -3 4 -6 -2 -5 -13z"/>
<path d="M4131 6274 c0 -11 3 -14 6 -6 3 7 2 16 -1 19 -3 4 -6 -2 -5 -13z"/>
<path d="M3670 6260 c0 -6 7 -10 15 -10 8 0 15 2 15 4 0 2 -7 6 -15 10 -8 3
-15 1 -15 -4z"/>
<path d="M3874 6255 c3 -23 12 -26 13 -5 1 11 -2 20 -7 20 -4 0 -7 -7 -6 -15z"/>
<path d="M3923 6255 c-3 -9 -3 -18 -1 -21 3 -3 8 4 11 16 6 23 -1 27 -10 5z"/>
<path d="M3955 6260 c3 -5 8 -10 11 -10 2 0 4 5 4 10 0 6 -5 10 -11 10 -5 0
-7 -4 -4 -10z"/>
<path d="M4030 6261 c0 -6 6 -8 13 -5 8 3 13 -4 14 -16 1 -13 -2 -18 -10 -14
-7 4 -1 -5 12 -19 26 -29 42 -37 20 -11 -7 9 -13 28 -14 43 0 16 -6 27 -17 29
-10 2 -18 -1 -18 -7z"/>
<path d="M4096 6257 c3 -10 9 -15 12 -12 3 3 0 11 -7 18 -10 9 -11 8 -5 -6z"/>
<path d="M3620 6249 c0 -5 -4 -8 -9 -5 -5 3 -11 -1 -15 -9 -3 -8 0 -17 6 -21
7 -5 8 -2 3 6 -6 9 -4 12 6 8 10 -4 15 1 16 13 1 10 0 19 -3 19 -2 0 -4 -5 -4
-11z"/>
<path d="M3646 6243 c-6 -14 -5 -15 5 -6 7 7 10 15 7 18 -3 3 -9 -2 -12 -12z"/>
<path d="M3749 6243 c-13 -17 -13 -17 6 -3 11 8 22 16 24 17 2 2 0 3 -6 3 -6
0 -17 -8 -24 -17z"/>
<path d="M4207 6246 c-3 -8 0 -17 7 -19 10 -4 12 1 9 14 -6 23 -9 24 -16 5z"/>
<path d="M4277 6245 c3 -8 9 -12 14 -9 12 7 11 11 -5 17 -10 4 -13 1 -9 -8z"/>
<path d="M4331 6244 c0 -11 3 -14 6 -6 3 7 2 16 -1 19 -3 4 -6 -2 -5 -13z"/>
<path d="M3898 6234 c-4 -15 0 -20 16 -22 11 0 16 2 10 6 -6 4 -13 14 -16 22
-3 11 -6 9 -10 -6z"/>
<path d="M4165 6239 c-4 -6 -5 -12 -2 -15 2 -3 7 2 10 11 7 17 1 20 -8 4z"/>
<path d="M3710 6230 c-9 -6 -10 -10 -3 -10 6 0 15 5 18 10 8 12 4 12 -15 0z"/>
<path d="M3830 6236 c0 -2 6 -9 14 -15 11 -9 16 -9 22 0 4 8 3 9 -4 5 -7 -4
-12 -2 -12 3 0 6 -4 11 -10 11 -5 0 -10 -2 -10 -4z"/>
<path d="M3964 6226 c6 -17 5 -17 -11 -5 -9 8 -14 9 -10 2 4 -6 -1 -18 -12
-25 -18 -13 -19 -28 -17 -325 1 -289 3 -313 20 -332 26 -28 76 -28 103 2 20
21 21 33 23 292 1 149 3 287 4 307 1 20 -1 35 -5 33 -4 -3 -9 3 -11 13 -3 10
-11 19 -19 20 -33 2 -51 9 -61 23 -8 11 -9 10 -4 -5z"/>
<path d="M3655 6221 c-6 -11 13 -26 22 -17 4 3 1 6 -6 6 -7 0 -9 5 -6 10 3 6
4 10 1 10 -3 0 -7 -4 -11 -9z"/>
<path d="M4015 6220 c3 -5 8 -10 11 -10 2 0 4 5 4 10 0 6 -5 10 -11 10 -5 0
-7 -4 -4 -10z"/>
<path d="M4095 6221 c-6 -11 21 -41 38 -41 6 0 1 7 -11 16 -12 8 -20 20 -17
25 4 5 4 9 1 9 -3 0 -7 -4 -11 -9z"/>
<path d="M4283 6217 c-13 -5 -23 -14 -23 -19 0 -5 10 -2 21 6 12 8 28 12 35 9
8 -3 14 -3 14 0 0 11 -26 14 -47 4z"/>
<path d="M4376 6217 c3 -10 9 -15 12 -12 3 3 0 11 -7 18 -10 9 -11 8 -5 -6z"/>
<path d="M4430 6220 c0 -6 7 -10 15 -10 8 0 15 2 15 4 0 2 -7 6 -15 10 -8 3
-15 1 -15 -4z"/>
<path d="M3485 6210 c-16 -7 -17 -9 -3 -9 9 -1 20 4 23 9 7 11 7 11 -20 0z"/>
<path d="M3802 6200 c7 -10 14 -18 15 -16 6 6 -9 36 -18 36 -5 0 -4 -9 3 -20z"/>
<path d="M4195 6210 c-4 -6 -11 -8 -16 -5 -5 4 -9 1 -9 -4 0 -16 16 -13 30 4
7 8 10 15 7 15 -3 0 -9 -5 -12 -10z"/>
<path d="M4229 6203 c-13 -16 -12 -17 4 -4 16 13 21 21 13 21 -2 0 -10 -8 -17
-17z"/>
<path d="M4340 6216 c0 -2 7 -7 16 -10 8 -3 12 -2 9 4 -6 10 -25 14 -25 6z"/>
<path d="M4402 6200 c-18 -29 -15 -38 4 -12 9 13 14 25 12 27 -2 2 -9 -5 -16
-15z"/>
<path d="M3376 6202 c-3 -5 1 -9 9 -9 8 0 12 4 9 9 -3 4 -7 8 -9 8 -2 0 -6 -4
-9 -8z"/>
<path d="M3520 6195 c-7 -8 -17 -12 -23 -8 -6 3 -7 1 -3 -5 9 -15 -6 -16 -22
-2 -9 7 -9 7 -2 -2 6 -7 5 -19 -1 -32 -9 -19 -9 -19 4 -4 8 10 16 16 18 14 2
-2 14 10 27 25 13 16 21 29 19 29 -3 0 -10 -7 -17 -15z"/>
<path d="M3560 6200 c18 -12 30 -13 30 -2 0 4 -10 9 -22 9 -18 2 -20 0 -8 -7z"/>
<path d="M3690 6206 c0 -2 7 -7 16 -10 8 -3 12 -2 9 4 -6 10 -25 14 -25 6z"/>
<path d="M3870 6200 c0 -6 7 -10 15 -10 8 0 15 2 15 4 0 2 -7 6 -15 10 -8 3
-15 1 -15 -4z"/>
<path d="M4460 6200 c-12 -7 -10 -9 7 -7 12 0 19 5 17 9 -6 10 -6 10 -24 -2z"/>
<path d="M4507 6191 c-4 -17 -3 -21 5 -13 5 5 8 16 6 23 -3 8 -7 3 -11 -10z"/>
<path d="M4590 6205 c0 -5 5 -17 10 -25 5 -8 10 -10 10 -5 0 6 -5 17 -10 25
-5 8 -10 11 -10 5z"/>
<path d="M3430 6189 c0 -5 5 -7 10 -4 6 3 10 8 10 11 0 2 -4 4 -10 4 -5 0 -10
-5 -10 -11z"/>
<path d="M3735 6191 c-3 -5 0 -13 6 -17 8 -5 9 -3 4 6 -6 10 -1 12 18 8 15 -3
24 -1 21 3 -7 12 -41 11 -49 0z"/>
<path d="M4317 6189 c7 -7 15 -10 18 -7 3 3 -2 9 -12 12 -14 6 -15 5 -6 -5z"/>
<path d="M3539 6188 c-4 -15 -6 -50 -3 -40 3 6 9 10 14 7 4 -3 10 2 13 10 4
10 1 12 -10 8 -11 -4 -14 -2 -9 5 4 7 5 12 2 12 -3 0 -6 -1 -7 -2z"/>
<path d="M3617 6179 c7 -7 15 -10 18 -7 3 3 -2 9 -12 12 -14 6 -15 5 -6 -5z"/>
<path d="M4283 6175 c-3 -9 -3 -18 -1 -21 3 -3 8 4 11 16 6 23 -1 27 -10 5z"/>
<path d="M4416 6181 c-3 -5 1 -14 9 -21 10 -9 15 -9 15 -1 0 6 -5 11 -11 11
-5 0 -7 5 -4 10 3 6 4 10 1 10 -3 0 -7 -4 -10 -9z"/>
<path d="M3395 6168 c25 -15 47 -19 39 -7 -3 5 -9 7 -14 4 -5 -3 -11 -1 -15 5
-3 5 -12 10 -18 10 -7 0 -3 -6 8 -12z"/>
<path d="M3590 6171 c0 -9 30 -24 36 -18 2 1 -6 8 -16 15 -11 7 -20 8 -20 3z"/>
<path d="M3835 6170 c-3 -5 -1 -10 4 -10 6 0 11 5 11 10 0 6 -2 10 -4 10 -3 0
-8 -4 -11 -10z"/>
<path d="M4664 6166 c-10 -8 -17 -16 -14 -19 3 -2 14 4 24 14 23 22 18 25 -10
5z"/>
<path d="M3237 6156 c-4 -10 -1 -13 8 -9 8 3 12 9 9 14 -7 12 -11 11 -17 -5z"/>
<path d="M3324 6159 c-3 -6 -1 -16 5 -22 9 -9 10 -7 5 7 -6 15 -4 17 6 11 9
-5 11 -4 6 3 -9 15 -13 15 -22 1z"/>
<path d="M3650 6165 c0 -7 30 -13 34 -7 3 4 -4 9 -15 9 -10 1 -19 0 -19 -2z"/>
<path d="M3775 6159 c-4 -6 -5 -12 -2 -15 2 -3 7 2 10 11 7 17 1 20 -8 4z"/>
<path d="M4353 6150 c-1 -11 2 -20 7 -20 4 0 7 7 6 15 -3 23 -12 26 -13 5z"/>
<path d="M4715 6160 c-3 -5 -3 -10 2 -10 4 0 1 -5 -7 -11 -12 -8 -12 -10 -1
-7 8 2 15 12 17 21 3 19 -2 22 -11 7z"/>
<path d="M4155 6151 c-3 -5 -2 -12 3 -15 5 -3 9 1 9 9 0 17 -3 19 -12 6z"/>
<path d="M4455 6151 c-3 -5 0 -13 6 -17 7 -4 9 -3 5 4 -3 5 0 13 6 15 9 4 10
6 1 6 -6 1 -14 -3 -18 -8z"/>
<path d="M4750 6150 c-9 -6 -10 -10 -3 -10 6 0 15 5 18 10 8 12 4 12 -15 0z"/>
<path d="M3643 6135 c-3 -9 -3 -18 -1 -21 3 -3 8 4 11 16 6 23 -1 27 -10 5z"/>
<path d="M4219 6148 c-6 -22 -5 -39 3 -45 6 -3 8 -1 4 5 -3 6 2 13 11 15 17 4
17 5 0 6 -10 0 -15 6 -12 11 3 6 4 10 1 10 -3 0 -6 -1 -7 -2z"/>
<path d="M4547 6132 c5 -11 3 -13 -7 -7 -9 5 -11 4 -6 -4 6 -9 12 -9 24 1 10
7 18 13 20 14 1 1 -6 4 -17 7 -15 3 -18 1 -14 -11z"/>
<path d="M4670 6141 c0 -10 29 -36 34 -30 1 2 -6 12 -16 22 -10 9 -18 13 -18
8z"/>
<path d="M4775 6140 c-3 -5 -1 -10 4 -10 6 0 11 5 11 10 0 6 -2 10 -4 10 -3 0
-8 -4 -11 -10z"/>
<path d="M3150 6130 c-8 -5 -10 -10 -5 -10 6 0 17 5 25 10 8 5 11 10 5 10 -5
0 -17 -5 -25 -10z"/>
<path d="M3396 6125 c4 -8 8 -15 10 -15 2 0 4 7 4 15 0 8 -4 15 -10 15 -5 0
-7 -7 -4 -15z"/>
<path d="M3873 6119 c-2 -23 3 -25 10 -4 4 8 3 16 -1 19 -4 3 -9 -4 -9 -15z"/>
<path d="M4139 6128 c7 -9 9 -23 5 -30 -6 -10 -4 -11 7 0 11 10 10 15 -6 30
-17 15 -18 15 -6 0z"/>
<path d="M4261 6124 c0 -11 3 -14 6 -6 3 7 2 16 -1 19 -3 4 -6 -2 -5 -13z"/>
<path d="M4430 6136 c0 -2 8 -10 18 -17 15 -13 16 -12 3 4 -13 16 -21 21 -21
13z"/>
<path d="M4590 6136 c0 -2 7 -9 15 -16 9 -7 15 -8 15 -2 0 5 -7 12 -15 16 -8
3 -15 4 -15 2z"/>
<path d="M4634 6120 c0 -13 4 -16 10 -10 7 7 7 13 0 20 -6 6 -10 3 -10 -10z"/>
<path d="M3110 6120 c0 -5 5 -10 11 -10 5 0 7 5 4 10 -3 6 -8 10 -11 10 -2 0
-4 -4 -4 -10z"/>
<path d="M3180 6120 c-9 -6 -10 -10 -3 -10 6 0 15 5 18 10 8 12 4 12 -15 0z"/>
<path d="M3220 6120 c8 -5 20 -10 25 -10 6 0 3 5 -5 10 -8 5 -19 10 -25 10 -5
0 -3 -5 5 -10z"/>
<path d="M3265 6119 c-4 -6 -4 -13 -1 -16 3 -4 6 -1 6 6 0 8 6 11 16 7 8 -3
12 -2 9 4 -8 13 -22 13 -30 -1z"/>
<path d="M3346 6122 c-3 -5 1 -9 9 -9 8 0 12 4 9 9 -3 4 -7 8 -9 8 -2 0 -6 -4
-9 -8z"/>
<path d="M3585 6120 c3 -4 14 -10 25 -13 11 -3 18 -2 15 3 -3 4 -14 10 -25 13
-11 3 -18 2 -15 -3z"/>
<path d="M3762 6118 c-15 -15 -15 -28 0 -28 6 0 8 3 5 7 -4 3 -2 12 4 20 14
16 7 17 -9 1z"/>
<path d="M3806 6122 c-3 -5 1 -9 9 -9 8 0 15 4 15 9 0 4 -4 8 -9 8 -6 0 -12
-4 -15 -8z"/>
<path d="M4113 6111 c0 -11 5 -18 9 -15 4 3 5 11 1 19 -7 21 -12 19 -10 -4z"/>
<path d="M4375 6120 c-4 -6 1 -7 11 -3 11 4 15 2 11 -4 -4 -6 0 -13 8 -16 10
-4 12 -1 8 10 -5 12 -3 14 8 8 8 -4 11 -4 6 0 -11 13 -45 16 -52 5z"/>
<path d="M4730 6126 c0 -2 7 -7 16 -10 8 -3 12 -2 9 4 -6 10 -25 14 -25 6z"/>
<path d="M4800 6120 c-12 -7 -10 -9 8 -7 12 0 22 5 22 9 0 11 -12 10 -30 -2z"/>
<path d="M3470 6116 c0 -2 9 -6 20 -9 11 -3 18 -1 14 4 -5 9 -34 13 -34 5z"/>
<path d="M4070 6111 c0 -6 4 -13 10 -16 6 -3 7 1 4 9 -7 18 -14 21 -14 7z"/>
<path d="M4314 6111 c4 -5 0 -11 -6 -14 -7 -3 -3 -4 8 -4 21 1 23 27 2 27 -5
0 -7 -4 -4 -9z"/>
<path d="M4478 6113 c7 -3 16 -2 19 1 4 3 -2 6 -13 5 -11 0 -14 -3 -6 -6z"/>
<path d="M3136 6101 c-3 -5 1 -14 8 -20 10 -9 16 -9 21 -1 4 6 4 14 1 17 -3 4
-6 1 -6 -6 0 -7 -5 -9 -10 -6 -6 4 -8 11 -5 16 4 5 4 9 1 9 -3 0 -7 -4 -10 -9z"/>
<path d="M3441 6090 c14 -31 19 -36 19 -24 0 6 -7 19 -16 30 -14 18 -14 18 -3
-6z"/>
<path d="M3678 6103 c7 -3 16 -2 19 1 4 3 -2 6 -13 5 -11 0 -14 -3 -6 -6z"/>
<path d="M3836 6102 c-3 -5 1 -9 9 -9 8 0 12 4 9 9 -3 4 -7 8 -9 8 -2 0 -6 -4
-9 -8z"/>
<path d="M4510 6101 c0 -6 4 -12 8 -15 5 -3 9 1 9 9 0 8 -4 15 -9 15 -4 0 -8
-4 -8 -9z"/>
<path d="M4655 6101 c-6 -11 13 -26 22 -17 4 3 1 6 -6 6 -7 0 -9 5 -6 10 3 6
4 10 1 10 -3 0 -7 -4 -11 -9z"/>
<path d="M4740 6093 c12 -25 25 -29 36 -11 5 7 3 8 -5 4 -7 -5 -19 0 -27 10
-14 18 -14 18 -4 -3z"/>
<path d="M3296 6087 c3 -8 11 -14 19 -14 20 0 19 4 -5 17 -15 8 -18 8 -14 -3z"/>
<path d="M3359 6088 c14 -19 32 -15 30 5 0 8 -2 8 -6 -1 -4 -10 -8 -10 -21 0
-15 12 -16 11 -3 -4z"/>
<path d="M3415 6093 c3 -3 -3 -11 -12 -18 -13 -9 -13 -14 -3 -20 9 -6 11 -4 5
5 -6 10 -4 12 7 7 16 -6 20 17 5 28 -4 3 -5 2 -2 -2z"/>
<path d="M3515 6089 c-4 -6 -5 -12 -2 -15 2 -3 7 2 10 11 7 17 1 20 -8 4z"/>
<path d="M3635 6091 c-3 -5 -2 -12 3 -15 5 -3 9 1 9 9 0 17 -3 19 -12 6z"/>
<path d="M4275 6091 c-3 -5 -2 -12 3 -15 5 -3 9 1 9 9 0 17 -3 19 -12 6z"/>
<path d="M4356 6087 c3 -10 9 -15 12 -12 3 3 0 11 -7 18 -10 9 -11 8 -5 -6z"/>
<path d="M4439 6098 c-5 -18 -6 -38 -1 -34 7 8 12 36 6 36 -2 0 -4 -1 -5 -2z"/>
<path d="M4822 6084 c-7 -8 -8 -14 -3 -14 10 0 25 19 20 25 -2 1 -10 -3 -17
-11z"/>
<path d="M4895 6079 c1 -10 5 -22 10 -26 4 -5 5 -2 1 5 -4 6 -2 12 3 12 15 0
14 17 -2 23 -9 3 -13 -2 -12 -14z"/>
<path d="M3540 6086 c0 -2 7 -7 16 -10 8 -3 12 -2 9 4 -6 10 -25 14 -25 6z"/>
<path d="M4570 6080 c0 -5 5 -10 10 -10 6 0 10 5 10 10 0 6 -4 10 -10 10 -5 0
-10 -4 -10 -10z"/>
<path d="M4630 6080 c0 -5 5 -10 11 -10 5 0 7 5 4 10 -3 6 -8 10 -11 10 -2 0
-4 -4 -4 -10z"/>
<path d="M3241 6073 c-1 -17 16 -25 25 -12 4 7 3 9 -4 5 -5 -3 -13 0 -15 6 -4
9 -6 10 -6 1z"/>
<path d="M3473 6067 c0 -8 6 -14 14 -14 9 0 10 4 2 14 -6 7 -12 13 -14 13 -1
0 -2 -6 -2 -13z"/>
<path d="M3070 6062 c0 -12 22 -32 35 -32 5 0 2 5 -8 11 -9 6 -15 14 -12 20 4
5 1 9 -4 9 -6 0 -11 -4 -11 -8z"/>
<path d="M3190 6063 c1 -13 30 -48 30 -36 0 7 -5 15 -10 18 -6 4 -8 11 -5 16
4 5 1 9 -4 9 -6 0 -11 -3 -11 -7z"/>
<path d="M3336 6061 c-3 -5 1 -14 8 -20 10 -9 16 -9 21 -1 4 6 1 9 -7 8 -7 -2
-12 3 -10 10 2 14 -4 16 -12 3z"/>
<path d="M3520 6060 c-8 -5 -10 -10 -5 -10 6 0 17 5 25 10 8 5 11 10 5 10 -5
0 -17 -5 -25 -10z"/>
<path d="M2940 6051 c0 -6 4 -13 10 -16 6 -3 7 1 4 9 -7 18 -14 21 -14 7z"/>
<path d="M3266 6045 c-11 -8 -15 -15 -9 -15 6 0 16 7 23 15 16 19 11 19 -14 0z"/>
<path d="M3305 6041 c5 -18 4 -22 -5 -16 -8 5 -11 4 -6 -3 4 -6 13 -9 22 -5
14 5 13 9 -14 43 -3 3 -1 -6 3 -19z"/>
<path d="M4496 6043 c-6 -14 -5 -15 5 -6 7 7 10 15 7 18 -3 3 -9 -2 -12 -12z"/>
<path d="M4717 6049 c7 -7 15 -10 18 -7 3 3 -2 9 -12 12 -14 6 -15 5 -6 -5z"/>
<path d="M4830 6050 c8 -5 20 -10 25 -10 6 0 3 5 -5 10 -8 5 -19 10 -25 10 -5
0 -3 -5 5 -10z"/>
<path d="M4873 6045 c0 -8 4 -12 8 -9 4 2 10 -2 12 -8 4 -8 6 -9 6 -2 1 6 -5
17 -12 23 -10 8 -14 7 -14 -4z"/>
<path d="M4970 6050 c-9 -6 -10 -10 -3 -10 6 0 15 5 18 10 8 12 4 12 -15 0z"/>
<path d="M5007 6041 c-3 -12 0 -24 5 -28 6 -3 8 -1 4 5 -3 5 -2 12 4 14 5 2 6
9 1 16 -6 10 -10 9 -14 -7z"/>
<path d="M2977 6035 c-4 -8 -2 -17 4 -20 5 -4 8 -1 7 7 -2 7 3 12 10 11 6 -2
12 2 12 7 0 16 -27 12 -33 -5z"/>
<path d="M3040 6046 c0 -2 7 -7 16 -10 8 -3 12 -2 9 4 -6 10 -25 14 -25 6z"/>
<path d="M4527 6039 c7 -7 15 -10 18 -7 3 3 -2 9 -12 12 -14 6 -15 5 -6 -5z"/>
<path d="M4600 6040 c-12 -7 -10 -9 7 -7 12 0 19 5 17 9 -6 10 -6 10 -24 -2z"/>
<path d="M4920 6040 c-8 -5 -10 -10 -5 -10 6 0 17 5 25 10 8 5 11 10 5 10 -5
0 -17 -5 -25 -10z"/>
<path d="M2888 6023 c6 -2 9 -10 6 -15 -4 -7 -2 -8 5 -4 13 9 5 26 -12 25 -9
0 -8 -2 1 -6z"/>
<path d="M3028 6023 c7 -3 16 -2 19 1 4 3 -2 6 -13 5 -11 0 -14 -3 -6 -6z"/>
<path d="M3360 6020 c-9 -6 -10 -10 -3 -10 6 0 15 5 18 10 8 12 4 12 -15 0z"/>
<path d="M4827 6010 c3 -11 9 -20 15 -20 5 0 4 9 -2 20 -6 11 -12 20 -14 20
-2 0 -2 -9 1 -20z"/>
<path d="M4948 6023 c7 -3 16 -2 19 1 4 3 -2 6 -13 5 -11 0 -14 -3 -6 -6z"/>
<path d="M3075 6010 c-4 -6 -11 -8 -16 -5 -5 4 -9 1 -9 -4 0 -16 16 -13 30 4
7 8 10 15 7 15 -3 0 -9 -5 -12 -10z"/>
<path d="M3154 6012 c4 -7 2 -21 -5 -30 -12 -15 -11 -15 6 0 16 15 17 20 6 30
-11 11 -13 10 -7 0z"/>
<path d="M3182 6000 c0 -14 2 -19 5 -12 2 6 2 18 0 25 -3 6 -5 1 -5 -13z"/>
<path d="M2916 6002 c-2 -4 -1 -14 4 -22 7 -11 9 -9 7 8 -1 24 -3 26 -11 14z"/>
<path d="M3211 5994 c0 -11 3 -14 6 -6 3 7 2 16 -1 19 -3 4 -6 -2 -5 -13z"/>
<path d="M3236 5997 c3 -10 9 -15 12 -12 3 3 0 11 -7 18 -10 9 -11 8 -5 -6z"/>
<path d="M4654 6002 c4 -3 14 -7 22 -8 9 -1 13 0 10 4 -4 3 -14 7 -22 8 -9 1
-13 0 -10 -4z"/>
<path d="M4920 6000 c-8 -5 -10 -10 -5 -10 6 0 17 5 25 10 8 5 11 10 5 10 -5
0 -17 -5 -25 -10z"/>
<path d="M4980 6000 c8 -5 20 -10 25 -10 6 0 3 5 -5 10 -8 5 -19 10 -25 10 -5
0 -3 -5 5 -10z"/>
<path d="M5058 6003 c6 -2 12 -9 12 -14 0 -6 -6 -7 -12 -3 -7 4 -9 3 -5 -1 4
-5 14 -10 22 -11 12 -2 12 2 5 17 -6 10 -16 19 -23 18 -9 0 -9 -2 1 -6z"/>
<path d="M5113 5995 c0 -8 4 -12 9 -9 5 3 6 10 3 15 -9 13 -12 11 -12 -6z"/>
<path d="M2830 5990 c-9 -6 -10 -10 -3 -10 6 0 15 5 18 10 8 12 4 12 -15 0z"/>
<path d="M2894 5982 c3 -6 -2 -13 -11 -15 -16 -4 -16 -5 -1 -6 21 -1 32 15 17
25 -7 4 -9 3 -5 -4z"/>
<path d="M3107 5973 c4 -10 2 -14 -4 -10 -5 3 -10 0 -10 -8 0 -10 4 -12 12 -5
7 5 14 8 17 5 2 -3 5 2 5 10 0 8 -6 16 -13 19 -9 3 -11 -1 -7 -11z"/>
<path d="M4715 5981 c-3 -5 -2 -12 3 -15 5 -3 9 1 9 9 0 17 -3 19 -12 6z"/>
<path d="M4740 5985 c0 -2 6 -8 13 -14 10 -8 14 -7 14 2 0 8 -6 14 -14 14 -7
0 -13 -1 -13 -2z"/>
<path d="M4780 5986 c0 -2 9 -6 20 -9 11 -3 18 -1 14 4 -5 9 -34 13 -34 5z"/>
<path d="M4895 5965 c0 -13 3 -21 8 -18 4 2 7 10 7 18 0 8 -3 16 -7 18 -5 3
-8 -5 -8 -18z"/>
<path d="M4939 5988 c-8 -27 -5 -35 11 -31 10 3 21 12 25 21 5 14 4 15 -6 5
-15 -15 -33 -17 -24 -3 3 6 4 10 1 10 -3 0 -6 -1 -7 -2z"/>
<path d="M4846 5963 c-6 -14 -5 -15 5 -6 7 7 10 15 7 18 -3 3 -9 -2 -12 -12z"/>
<path d="M5134 5961 c0 -13 6 -17 19 -13 10 2 16 5 15 6 -2 1 -10 7 -18 13
-13 10 -16 8 -16 -6z"/>
<path d="M2771 5967 c2 -1 13 -9 24 -17 19 -14 19 -14 6 3 -7 9 -18 17 -24 17
-6 0 -8 -1 -6 -3z"/>
<path d="M2816 5955 c4 -8 8 -15 10 -15 2 0 4 7 4 15 0 8 -4 15 -10 15 -5 0
-7 -7 -4 -15z"/>
<path d="M5016 5958 c3 -4 11 -5 19 -1 21 7 19 12 -4 10 -11 0 -18 -5 -15 -9z"/>
<path d="M4813 5945 c0 -8 4 -12 9 -9 5 3 6 10 3 15 -9 13 -12 11 -12 -6z"/>
<path d="M2736 5941 c8 -8 53 -7 48 1 -3 4 -16 7 -29 6 -13 -1 -22 -4 -19 -7z"/>
<path d="M2886 5938 c3 -5 10 -6 15 -3 13 9 11 12 -6 12 -8 0 -12 -4 -9 -9z"/>
<path d="M3033 5942 c-9 -6 -7 -11 7 -20 19 -11 40 1 26 15 -3 4 -6 1 -6 -6 0
-7 -5 -9 -10 -6 -6 4 -8 11 -5 16 7 11 4 11 -12 1z"/>
<path d="M4990 5940 c0 -5 5 -10 10 -10 6 0 10 5 10 10 0 6 -4 10 -10 10 -5 0
-10 -4 -10 -10z"/>
<path d="M5066 5937 c3 -10 9 -15 12 -12 3 3 0 11 -7 18 -10 9 -11 8 -5 -6z"/>
<path d="M5215 5941 c6 -10 4 -13 -6 -9 -10 4 -15 -1 -15 -13 0 -13 4 -15 12
-8 8 7 14 6 17 -3 3 -7 5 -3 3 9 -1 12 -6 26 -11 30 -4 5 -4 2 0 -6z"/>
<path d="M5116 5927 c3 -10 9 -15 12 -12 3 3 0 11 -7 18 -10 9 -11 8 -5 -6z"/>
<path d="M2717 5923 c-10 -9 -9 -23 1 -23 5 0 9 7 9 15 0 17 -1 18 -10 8z"/>
<path d="M2760 5921 c0 -5 7 -12 16 -15 14 -5 15 -4 4 9 -14 17 -20 19 -20 6z"/>
<path d="M2960 5920 c-9 -6 -10 -10 -3 -10 6 0 15 5 18 10 8 12 4 12 -15 0z"/>
<path d="M4910 5926 c0 -2 7 -7 16 -10 8 -3 12 -2 9 4 -6 10 -25 14 -25 6z"/>
<path d="M5050 5921 c0 -6 4 -13 10 -16 6 -3 7 1 4 9 -7 18 -14 21 -14 7z"/>
<path d="M2867 5906 c-4 -10 1 -12 14 -9 23 6 24 9 5 16 -8 3 -17 0 -19 -7z"/>
<path d="M4950 5916 c0 -2 8 -10 18 -17 15 -13 16 -12 3 4 -13 16 -21 21 -21
13z"/>
<path d="M2796 5894 c-8 -20 -8 -24 2 -24 4 0 8 9 9 20 2 24 -3 26 -11 4z"/>
<path d="M2913 5895 c0 -8 4 -12 9 -9 5 3 6 10 3 15 -9 13 -12 11 -12 -6z"/>
<path d="M2980 5904 c0 -1 8 -8 17 -15 9 -8 14 -9 10 -2 -4 6 -1 13 5 16 7 3
3 4 -9 4 -13 -1 -23 -2 -23 -3z"/>
<path d="M3342 5890 c-29 -27 -28 -44 12 -174 19 -61 42 -138 51 -171 30 -108
39 -111 218 -65 124 31 144 39 157 62 19 34 5 77 -32 97 -24 14 -34 13 -113
-7 -47 -13 -90 -20 -94 -17 -5 2 -12 22 -17 42 -4 21 -8 40 -9 43 -30 104 -59
181 -73 194 -25 22 -74 20 -100 -4z"/>
<path d="M4527 5892 c-10 -11 -36 -77 -58 -148 -23 -71 -42 -131 -44 -132 -2
-2 -38 6 -79 17 -42 12 -87 21 -101 21 -31 0 -65 -36 -65 -71 0 -50 26 -66
161 -98 69 -17 137 -31 150 -31 35 0 51 24 77 115 13 44 30 105 39 135 46 159
45 153 25 180 -25 33 -81 39 -105 12z"/>
<path d="M2666 5892 c-3 -5 1 -9 9 -9 8 0 12 4 9 9 -3 4 -7 8 -9 8 -2 0 -6 -4
-9 -8z"/>
<path d="M5092 5891 c-11 -6 -10 -10 0 -19 11 -8 14 -7 14 9 0 10 0 19 -1 19
0 0 -6 -4 -13 -9z"/>
<path d="M5251 5884 c0 -11 3 -14 6 -6 3 7 2 16 -1 19 -3 4 -6 -2 -5 -13z"/>
<path d="M2700 5886 c0 -2 8 -10 18 -17 15 -13 16 -12 3 4 -13 16 -21 21 -21
13z"/>
<path d="M5035 5880 c-3 -5 -1 -10 4 -10 6 0 11 5 11 10 0 6 -2 10 -4 10 -3 0
-8 -4 -11 -10z"/>
<path d="M5136 5874 c-3 -7 2 -10 15 -7 22 6 26 20 4 20 -8 0 -16 -6 -19 -13z"/>
<path d="M5271 5887 c2 -1 13 -9 24 -17 19 -14 19 -14 6 3 -7 9 -18 17 -24 17
-6 0 -8 -1 -6 -3z"/>
<path d="M2677 5857 c4 -6 1 -8 -8 -5 -11 4 -15 -1 -15 -17 0 -13 4 -21 8 -19
5 3 5 10 2 16 -5 7 -1 9 9 5 10 -4 16 -2 14 6 -1 7 5 11 13 9 8 -2 11 0 7 4
-12 12 -38 14 -30 1z"/>
<path d="M2748 5848 c6 -23 16 -23 33 0 13 16 13 16 -5 2 -18 -13 -19 -13 -14
1 4 9 1 16 -7 16 -7 0 -10 -8 -7 -19z"/>
<path d="M2837 5856 c-12 -9 -14 -16 -7 -21 5 -3 8 -10 5 -15 -3 -5 -1 -11 4
-15 6 -3 8 4 6 16 -3 13 0 28 6 36 14 17 9 16 -14 -1z"/>
<path d="M5266 5862 c-3 -5 1 -9 9 -9 8 0 12 4 9 9 -3 4 -7 8 -9 8 -2 0 -6 -4
-9 -8z"/>
<path d="M5328 5848 c-7 -17 15 -19 29 -3 4 4 3 5 -4 2 -6 -4 -13 -2 -15 5 -3
8 -6 6 -10 -4z"/>
<path d="M5131 5834 c0 -11 3 -14 6 -6 3 7 2 16 -1 19 -3 4 -6 -2 -5 -13z"/>
<path d="M5230 5840 c0 -5 5 -10 10 -10 6 0 10 5 10 10 0 6 -4 10 -10 10 -5 0
-10 -4 -10 -10z"/>
<path d="M5373 5835 c0 -7 7 -11 15 -7 11 4 13 1 7 -8 -5 -9 -4 -11 3 -6 16
10 15 14 -6 25 -14 7 -19 6 -19 -4z"/>
<path d="M5150 5836 c0 -2 8 -10 18 -17 15 -13 16 -12 3 4 -13 16 -21 21 -21
13z"/>
<path d="M2590 5821 c0 -10 29 -36 34 -30 1 2 -6 12 -16 22 -10 9 -18 13 -18
8z"/>
<path d="M2790 5826 c0 -2 7 -7 16 -10 8 -3 12 -2 9 4 -6 10 -25 14 -25 6z"/>
<path d="M5266 5816 c5 -12 4 -17 -3 -13 -5 3 -10 -1 -10 -9 0 -13 2 -13 16 0
12 13 13 18 2 28 -10 11 -11 9 -5 -6z"/>
<path d="M2690 5818 c0 -2 9 -11 20 -21 11 -9 20 -13 20 -7 0 5 -9 14 -20 20
-11 6 -20 9 -20 8z"/>
<path d="M2542 5801 c-9 -5 -4 -8 16 -7 17 1 28 4 25 9 -6 9 -25 9 -41 -2z"/>
<path d="M2660 5800 c-9 -6 -10 -10 -3 -10 6 0 15 5 18 10 8 12 4 12 -15 0z"/>
<path d="M5136 5798 c3 -5 10 -6 15 -3 13 9 11 12 -6 12 -8 0 -12 -4 -9 -9z"/>
<path d="M5290 5800 c0 -4 7 -7 15 -6 23 3 26 12 5 13 -11 1 -20 -2 -20 -7z"/>
<path d="M2754 5792 c3 -5 0 -13 -6 -15 -9 -4 -10 -6 -1 -6 17 -1 25 16 12 25
-7 4 -9 3 -5 -4z"/>
<path d="M2550 5770 c-6 -11 -8 -20 -6 -20 3 0 10 9 16 20 6 11 8 20 6 20 -3
0 -10 -9 -16 -20z"/>
<path d="M5180 5786 c0 -2 8 -10 18 -17 15 -13 16 -12 3 4 -13 16 -21 21 -21
13z"/>
<path d="M5354 5750 c-1 -22 1 -38 4 -36 7 8 11 76 4 76 -4 0 -8 -18 -8 -40z"/>
<path d="M5404 5779 c-3 -6 2 -18 12 -27 17 -16 17 -16 5 0 -7 9 -10 22 -6 28
3 5 4 10 1 10 -3 0 -8 -5 -12 -11z"/>
<path d="M2597 5773 c-10 -10 -8 -23 4 -23 5 0 8 4 5 9 -4 5 0 12 6 14 7 3 8
6 2 6 -6 1 -14 -2 -17 -6z"/>
<path d="M2635 5770 c-3 -5 -3 -10 2 -10 4 0 1 -5 -7 -11 -10 -7 -11 -9 -2 -7
8 2 13 7 12 12 -1 5 4 13 12 17 9 6 9 9 1 9 -6 0 -15 -4 -18 -10z"/>
<path d="M2679 5768 c15 -21 31 -23 31 -6 0 6 -3 8 -7 5 -3 -4 -13 -1 -22 6
-14 11 -14 10 -2 -5z"/>
<path d="M2445 5759 c-4 -6 -5 -12 -2 -15 2 -3 7 2 10 11 7 17 1 20 -8 4z"/>
<path d="M2490 5760 c-8 -5 -10 -10 -5 -10 6 0 17 5 25 10 8 5 11 10 5 10 -5
0 -17 -5 -25 -10z"/>
<path d="M5226 5758 c3 -5 10 -6 15 -3 13 9 11 12 -6 12 -8 0 -12 -4 -9 -9z"/>
<path d="M5260 5755 c-11 -13 -10 -14 4 -9 9 3 16 10 16 15 0 13 -6 11 -20 -6z"/>
<path d="M5436 5761 c9 -9 34 -9 34 -1 0 5 -9 8 -20 7 -10 -1 -17 -3 -14 -6z"/>
<path d="M2564 5739 c-3 -6 -2 -15 4 -21 6 -6 12 -6 17 3 6 8 4 10 -5 4 -10
-6 -12 -4 -7 8 7 19 2 23 -9 6z"/>
<path d="M2655 5740 c-3 -6 1 -7 9 -4 18 7 21 14 7 14 -6 0 -13 -4 -16 -10z"/>
<path d="M5475 5741 c-3 -5 0 -13 6 -17 7 -4 9 -3 5 4 -3 5 0 13 6 15 9 4 10
6 1 6 -6 1 -14 -3 -18 -8z"/>
<path d="M5514 5734 c1 -9 11 -21 22 -26 18 -9 18 -8 2 5 -10 8 -15 16 -12 19
3 4 1 9 -4 12 -6 3 -9 -1 -8 -10z"/>
<path d="M5275 5730 c-3 -6 1 -7 9 -4 18 7 21 14 7 14 -6 0 -13 -4 -16 -10z"/>
<path d="M2460 5720 c8 -5 20 -10 25 -10 6 0 3 5 -5 10 -8 5 -19 10 -25 10 -5
0 -3 -5 5 -10z"/>
<path d="M2507 5723 c-3 -5 6 -9 20 -10 19 -1 22 1 12 8 -17 11 -26 11 -32 2z"/>
<path d="M2616 5718 c3 -5 10 -6 15 -3 13 9 11 12 -6 12 -8 0 -12 -4 -9 -9z"/>
<path d="M5376 5722 c-3 -5 1 -9 9 -9 8 0 12 4 9 9 -3 4 -7 8 -9 8 -2 0 -6 -4
-9 -8z"/>
<path d="M2445 5700 c-8 -13 3 -30 18 -29 9 0 9 2 0 6 -7 2 -13 9 -13 14 0 6
5 7 12 3 7 -4 8 -3 4 4 -9 15 -13 15 -21 2z"/>
<path d="M2635 5700 c-3 -5 -1 -10 4 -10 6 0 11 5 11 10 0 6 -2 10 -4 10 -3 0
-8 -4 -11 -10z"/>
<path d="M5404 5695 c-5 -13 -9 -13 -23 -3 -13 10 -13 9 2 -8 9 -11 14 -23 11
-26 -3 -3 -1 -9 4 -12 6 -3 9 2 7 11 -1 10 2 26 7 36 5 9 6 17 3 17 -3 0 -8
-7 -11 -15z"/>
<path d="M5436 5698 c3 -5 10 -6 15 -3 13 9 11 12 -6 12 -8 0 -12 -4 -9 -9z"/>
<path d="M2548 5693 c7 -3 16 -2 19 1 4 3 -2 6 -13 5 -11 0 -14 -3 -6 -6z"/>
<path d="M2396 5675 c-9 -26 -7 -32 5 -12 6 10 9 21 6 23 -2 3 -7 -2 -11 -11z"/>
<path d="M2593 5683 c4 -3 1 -13 -6 -21 -11 -13 -9 -14 10 -2 22 14 22 30 1
30 -6 0 -8 -3 -5 -7z"/>
<path d="M5339 5673 c-12 -16 -12 -17 2 -6 9 7 20 9 24 5 5 -4 5 -1 1 6 -9 16
-11 15 -27 -5z"/>
<path d="M5459 5673 c-13 -17 -13 -17 6 -3 11 8 22 16 24 17 2 2 0 3 -6 3 -6
0 -17 -8 -24 -17z"/>
<path d="M5586 5677 c3 -10 9 -15 12 -12 3 3 0 11 -7 18 -10 9 -11 8 -5 -6z"/>
<path d="M2414 5659 c-11 -19 10 -28 30 -13 11 8 15 14 10 14 -6 0 -16 -6 -23
-12 -11 -11 -13 -10 -8 5 7 19 2 23 -9 6z"/>
<path d="M2508 5657 c7 -8 9 -17 5 -20 -3 -4 -1 -7 5 -7 18 0 14 27 -4 34 -13
5 -14 4 -6 -7z"/>
<path d="M2754 5656 c-30 -21 -38 -60 -20 -94 8 -16 36 -60 61 -98 26 -38 63
-98 82 -134 20 -36 47 -77 60 -92 22 -22 29 -25 56 -17 17 5 54 24 81 42 28
18 77 45 108 60 99 46 120 86 76 142 -18 23 -27 26 -57 22 -20 -2 -71 -25
-113 -50 l-77 -46 -32 52 c-18 29 -44 71 -58 95 -56 94 -86 127 -116 130 -17
1 -40 -4 -51 -12z"/>
<path d="M5113 5648 c-11 -13 -45 -68 -76 -123 -85 -150 -69 -142 -162 -84
-43 27 -91 49 -106 49 -40 0 -72 -31 -72 -68 0 -39 20 -62 81 -93 26 -12 76
-42 112 -65 36 -24 72 -44 80 -45 31 -6 57 13 92 66 19 30 39 51 43 47 5 -4 5
-2 1 5 -4 7 24 62 64 126 39 65 70 126 70 140 0 60 -86 90 -127 45z"/>
<path d="M5558 5653 c7 -3 16 -2 19 1 4 3 -2 6 -13 5 -11 0 -14 -3 -6 -6z"/>
<path d="M2319 5633 c-13 -17 -13 -17 6 -3 11 8 22 16 24 17 2 2 0 3 -6 3 -6
0 -17 -8 -24 -17z"/>
<path d="M2365 5640 c3 -5 8 -10 11 -10 2 0 4 5 4 10 0 6 -5 10 -11 10 -5 0
-7 -4 -4 -10z"/>
<path d="M5450 5638 c0 -4 4 -8 9 -8 6 0 12 4 15 8 3 5 -1 9 -9 9 -8 0 -15 -4
-15 -9z"/>
<path d="M5513 5630 c1 -12 10 -29 22 -38 19 -17 20 -16 4 3 -9 11 -15 28 -14
38 2 9 -1 17 -5 17 -5 0 -8 -9 -7 -20z"/>
<path d="M5595 5640 c-3 -5 -1 -10 4 -10 6 0 11 5 11 10 0 6 -2 10 -4 10 -3 0
-8 -4 -11 -10z"/>
<path d="M2470 5636 c0 -2 8 -10 18 -17 15 -13 16 -12 3 4 -13 16 -21 21 -21
13z"/>
<path d="M5640 5636 c0 -2 7 -7 16 -10 8 -3 12 -2 9 4 -6 10 -25 14 -25 6z"/>
<path d="M2334 5619 c-4 -7 -3 -9 4 -5 5 3 13 0 15 -6 4 -9 6 -10 6 -1 1 17
-16 25 -25 12z"/>
<path d="M2390 5620 c0 -5 5 -10 10 -10 6 0 10 5 10 10 0 6 -4 10 -10 10 -5 0
-10 -4 -10 -10z"/>
<path d="M2445 5619 c-4 -6 -5 -12 -2 -15 2 -3 7 2 10 11 7 17 1 20 -8 4z"/>
<path d="M5416 5618 c3 -5 10 -6 15 -3 13 9 11 12 -6 12 -8 0 -12 -4 -9 -9z"/>
<path d="M5570 5616 c0 -2 8 -10 18 -17 15 -13 16 -12 3 4 -13 16 -21 21 -21
13z"/>
<path d="M5615 5609 c-4 -6 -5 -12 -2 -15 2 -3 7 2 10 11 7 17 1 20 -8 4z"/>
<path d="M2395 5591 c-6 -11 13 -26 22 -17 4 3 1 6 -6 6 -7 0 -9 5 -6 10 3 6
4 10 1 10 -3 0 -7 -4 -11 -9z"/>
<path d="M2252 5581 c-11 -7 -11 -9 0 -14 9 -3 15 1 15 9 0 8 -1 14 -1 14 -1
0 -7 -4 -14 -9z"/>
<path d="M2350 5583 c0 -6 6 -15 13 -20 15 -9 53 -16 45 -7 -3 3 -14 7 -23 8
-9 1 -21 9 -26 17 -5 9 -9 10 -9 2z"/>
<path d="M2440 5580 c-9 -6 -10 -10 -3 -10 6 0 15 5 18 10 8 12 4 12 -15 0z"/>
<path d="M2500 5580 c-8 -5 -10 -10 -5 -10 6 0 17 5 25 10 8 5 11 10 5 10 -5
0 -17 -5 -25 -10z"/>
<path d="M5450 5579 c0 -5 5 -7 10 -4 6 3 10 8 10 11 0 2 -4 4 -10 4 -5 0 -10
-5 -10 -11z"/>
<path d="M5613 5565 c0 -8 3 -13 5 -10 3 3 12 -1 21 -7 10 -8 9 -4 -3 10 -23
26 -23 26 -23 7z"/>
<path d="M5690 5570 c-9 -6 -10 -10 -3 -10 6 0 15 5 18 10 8 12 4 12 -15 0z"/>
<path d="M2232 5554 c10 -10 20 -16 22 -13 3 3 -5 11 -17 18 -21 13 -21 12 -5
-5z"/>
<path d="M2275 5550 c-4 -6 1 -7 11 -3 13 5 15 3 9 -7 -5 -9 -4 -11 4 -6 6 4
9 12 6 17 -8 12 -22 12 -30 -1z"/>
<path d="M5713 5545 c0 -8 4 -12 9 -9 5 3 6 10 3 15 -9 13 -12 11 -12 -6z"/>
<path d="M2195 5540 c-3 -5 0 -7 9 -4 11 4 13 0 10 -18 -4 -21 -3 -21 5 -3 13
29 -8 51 -24 25z"/>
<path d="M2339 5543 c-1 -5 -1 -12 0 -17 1 -5 -5 -6 -14 -3 -22 9 -18 -1 6
-14 17 -9 20 -8 14 2 -6 8 -4 11 7 7 8 -4 15 -1 15 7 0 8 -7 11 -15 7 -10 -3
-13 -1 -8 6 4 7 5 12 2 12 -3 0 -7 -3 -7 -7z"/>
<path d="M5540 5546 c0 -2 8 -10 18 -17 15 -13 16 -12 3 4 -13 16 -21 21 -21
13z"/>
<path d="M5664 5542 c4 -3 14 -7 22 -8 9 -1 13 0 10 4 -4 3 -14 7 -22 8 -9 1
-13 0 -10 -4z"/>
<path d="M2250 5526 c0 -2 7 -7 16 -10 8 -3 12 -2 9 4 -6 10 -25 14 -25 6z"/>
<path d="M2174 5511 c4 -7 -2 -15 -16 -20 -15 -7 -17 -10 -7 -10 23 -1 44 25
28 35 -8 4 -9 3 -5 -5z"/>
<path d="M5674 5505 c1 -8 8 -21 16 -28 12 -10 12 -9 2 4 -6 9 -9 18 -6 21 3
3 1 9 -4 12 -6 3 -9 -1 -8 -9z"/>
<path d="M2231 5503 c-1 -7 8 -17 18 -23 15 -7 19 -7 17 5 -1 8 -6 18 -11 22
-4 4 -5 2 -1 -4 4 -7 3 -13 -3 -13 -5 0 -12 6 -14 13 -4 9 -6 9 -6 0z"/>
<path d="M5700 5505 c0 -2 6 -8 13 -14 10 -8 14 -7 14 2 0 8 -6 14 -14 14 -7
0 -13 -1 -13 -2z"/>
<path d="M2200 5469 c13 -23 22 -25 13 -2 -5 12 -3 14 8 8 8 -5 11 -4 6 0 -4
5 -14 10 -22 11 -12 2 -12 -2 -5 -17z"/>
<path d="M2376 5473 c-6 -14 -5 -15 5 -6 7 7 10 15 7 18 -3 3 -9 -2 -12 -12z"/>
<path d="M5575 5481 c-3 -5 -2 -12 3 -15 5 -3 9 1 9 9 0 17 -3 19 -12 6z"/>
<path d="M5796 5449 c9 -10 21 -16 25 -13 13 8 11 14 -3 12 -7 -2 -12 2 -11 8
1 6 -5 11 -13 11 -12 0 -11 -4 2 -18z"/>
<path d="M5700 5451 c0 -10 19 -25 25 -20 1 2 -3 10 -11 17 -8 7 -14 8 -14 3z"/>
<path d="M2170 5439 c0 -5 4 -8 9 -4 5 3 12 1 16 -5 3 -5 11 -10 18 -10 6 0 2
7 -9 15 -23 17 -34 19 -34 4z"/>
<path d="M2290 5439 c0 -5 5 -7 10 -4 6 3 10 8 10 11 0 2 -4 4 -10 4 -5 0 -10
-5 -10 -11z"/>
<path d="M2117 5429 c7 -7 15 -10 18 -7 3 3 -2 9 -12 12 -14 6 -15 5 -6 -5z"/>
<path d="M2090 5423 c5 -2 8 -8 6 -12 -3 -4 0 -13 5 -21 7 -11 8 -9 6 9 -2 14
-9 26 -16 27 -6 1 -7 0 -1 -3z"/>
<path d="M2154 5414 c1 -9 11 -21 22 -26 18 -9 18 -8 2 5 -10 8 -15 16 -12 19
3 4 1 9 -4 12 -6 3 -9 -1 -8 -10z"/>
<path d="M2238 5423 c7 -3 16 -2 19 1 4 3 -2 6 -13 5 -11 0 -14 -3 -6 -6z"/>
<path d="M2273 5415 c0 -8 4 -12 9 -9 5 3 6 10 3 15 -9 13 -12 11 -12 -6z"/>
<path d="M5746 5418 c3 -5 10 -6 15 -3 13 9 11 12 -6 12 -8 0 -12 -4 -9 -9z"/>
<path d="M5793 5405 c0 -8 4 -12 9 -9 5 3 6 10 3 15 -9 13 -12 11 -12 -6z"/>
<path d="M5875 5410 c-4 -6 -10 -8 -14 -6 -4 3 -8 -1 -8 -9 0 -13 4 -12 19 2
18 16 22 23 14 23 -3 0 -8 -5 -11 -10z"/>
<path d="M2205 5400 c-3 -6 1 -7 9 -4 18 7 21 14 7 14 -6 0 -13 -4 -16 -10z"/>
<path d="M2240 5406 c0 -2 8 -10 18 -17 15 -13 16 -12 3 4 -13 16 -21 21 -21
13z"/>
<path d="M2072 5386 c7 -8 15 -12 17 -11 5 6 -10 25 -20 25 -5 0 -4 -6 3 -14z"/>
<path d="M5736 5378 c3 -5 10 -6 15 -3 13 9 11 12 -6 12 -8 0 -12 -4 -9 -9z"/>
<path d="M2055 5359 c-6 -8 -4 -10 5 -4 10 6 12 4 6 -11 -6 -15 -5 -17 5 -6 9
9 10 15 2 23 -8 8 -13 7 -18 -2z"/>
<path d="M2095 5359 c-6 -8 -4 -10 5 -4 10 6 12 4 6 -11 -6 -15 -5 -17 5 -6 9
9 10 15 2 23 -8 8 -13 7 -18 -2z"/>
<path d="M2166 5358 c4 -5 9 -7 12 -4 3 3 15 -2 26 -11 21 -18 21 -18 3 3 -16
20 -52 30 -41 12z"/>
<path d="M2229 5357 c6 -8 7 -18 3 -22 -4 -5 -1 -5 6 -1 10 6 10 11 1 22 -6 8
-14 14 -16 14 -3 0 0 -6 6 -13z"/>
<path d="M5816 5362 c-3 -5 1 -9 9 -9 8 0 12 4 9 9 -3 4 -7 8 -9 8 -2 0 -6 -4
-9 -8z"/>
<path d="M3933 5336 c-18 -22 -19 -52 -18 -558 0 -573 -1 -559 50 -578 29 -11
70 7 83 36 8 17 12 177 13 517 1 572 2 543 -13 571 -15 29 -28 36 -65 36 -21
0 -37 -8 -50 -24z"/>
<path d="M2033 5320 c0 -23 3 -28 9 -16 5 9 5 23 0 32 -6 12 -9 7 -9 -16z"/>
<path d="M2006 5323 c-6 -14 -5 -15 5 -6 7 7 10 15 7 18 -3 3 -9 -2 -12 -12z"/>
<path d="M2173 5327 c0 -8 6 -14 14 -14 9 0 10 4 2 14 -6 7 -12 13 -14 13 -1
0 -2 -6 -2 -13z"/>
<path d="M5849 5323 c-13 -16 -12 -17 4 -4 9 7 17 15 17 17 0 8 -8 3 -21 -13z"/>
<path d="M2070 5290 c6 -11 13 -20 16 -20 2 0 0 9 -6 20 -6 11 -13 20 -16 20
-2 0 0 -9 6 -20z"/>
<path d="M2132 5291 c-11 -6 -10 -10 0 -19 11 -8 14 -7 14 9 0 10 0 19 -1 19
0 0 -6 -4 -13 -9z"/>
<path d="M2170 5296 c0 -2 8 -10 18 -17 15 -13 16 -12 3 4 -13 16 -21 21 -21
13z"/>
<path d="M5935 5291 c-3 -6 -14 -8 -25 -6 -11 2 -22 0 -24 -4 -8 -13 43 -6 56
7 7 7 9 12 6 12 -4 0 -9 -4 -13 -9z"/>
<path d="M1977 5279 c7 -7 15 -10 18 -7 3 3 -2 9 -12 12 -14 6 -15 5 -6 -5z"/>
<path d="M2040 5275 c-11 -13 -10 -14 5 -9 14 6 16 4 10 -6 -5 -8 -4 -11 3 -6
6 4 9 13 5 21 -7 19 -8 19 -23 0z"/>
<path d="M1950 5260 c0 -5 5 -10 10 -10 6 0 10 5 10 10 0 6 -4 10 -10 10 -5 0
-10 -4 -10 -10z"/>
<path d="M5850 5260 c0 -5 5 -10 11 -10 5 0 7 5 4 10 -3 6 -8 10 -11 10 -2 0
-4 -4 -4 -10z"/>
<path d="M2075 5249 c-4 -6 -5 -12 -2 -15 2 -3 7 2 10 11 7 17 1 20 -8 4z"/>
<path d="M5956 5247 c3 -10 9 -15 12 -12 3 3 0 11 -7 18 -10 9 -11 8 -5 -6z"/>
<path d="M1987 5226 c-4 -10 -1 -13 8 -9 8 3 12 9 9 14 -7 12 -11 11 -17 -5z"/>
<path d="M2020 5226 c0 -2 9 -6 20 -9 11 -3 18 -1 14 4 -5 9 -34 13 -34 5z"/>
<path d="M5986 5221 c-4 -5 3 -7 14 -4 23 6 26 13 6 13 -8 0 -17 -4 -20 -9z"/>
<path d="M1945 5210 c3 -6 1 -10 -6 -10 -7 0 -10 -3 -6 -6 3 -3 13 -2 22 4 16
8 16 9 1 15 -10 4 -15 3 -11 -3z"/>
<path d="M6035 5211 c4 -7 1 -20 -6 -29 -12 -14 -10 -14 8 1 16 14 22 15 26 5
4 -9 6 -9 6 -1 1 7 -9 17 -20 24 -16 8 -20 8 -14 0z"/>
<path d="M2016 5193 c-6 -14 -5 -15 5 -6 7 7 10 15 7 18 -3 3 -9 -2 -12 -12z"/>
<path d="M1963 5182 c-7 -4 -9 -13 -4 -21 6 -9 10 -7 14 8 3 12 4 21 4 21 -1
0 -7 -4 -14 -8z"/>
<path d="M2036 5173 c-6 -14 -5 -15 5 -6 7 7 10 15 7 18 -3 3 -9 -2 -12 -12z"/>
<path d="M5914 5169 c-3 -6 -2 -15 3 -20 5 -5 9 -1 9 11 0 23 -2 24 -12 9z"/>
<path d="M2065 5160 c-3 -6 1 -7 9 -4 18 7 21 14 7 14 -6 0 -13 -4 -16 -10z"/>
<path d="M2605 5098 c-39 -40 -98 -104 -132 -142 l-61 -69 -89 69 c-48 38 -99
79 -113 91 -74 68 -168 28 -146 -62 4 -15 36 -47 84 -83 42 -32 105 -80 140
-108 119 -93 139 -97 201 -34 98 99 277 295 287 313 14 26 0 73 -26 87 -45 24
-72 12 -145 -62z"/>
<path d="M5205 5150 c-38 -41 -23 -75 73 -174 49 -50 111 -116 138 -146 95
-106 100 -110 139 -110 30 0 53 14 144 88 60 48 130 103 155 122 50 38 64 69
50 109 -14 39 -55 55 -96 38 -18 -8 -42 -23 -53 -33 -18 -17 -151 -124 -182
-147 -8 -6 -38 19 -95 80 -176 188 -182 193 -220 193 -22 0 -41 -7 -53 -20z"/>
<path d="M1917 5153 c-10 -10 -8 -23 4 -23 5 0 7 5 3 12 -5 8 -2 9 10 5 10 -4
15 -3 11 3 -7 12 -19 13 -28 3z"/>
<path d="M2002 5126 c15 -30 16 -30 14 -3 0 13 -6 24 -13 24 -9 0 -9 -6 -1
-21z"/>
<path d="M6075 5140 c-3 -5 -1 -10 4 -10 6 0 11 5 11 10 0 6 -2 10 -4 10 -3 0
-8 -4 -11 -10z"/>
<path d="M1890 5129 c0 -5 -5 -7 -11 -3 -8 4 -7 0 1 -15 9 -18 30 -21 30 -5 0
3 -5 2 -11 -2 -8 -4 -9 0 -4 15 3 11 4 21 1 21 -3 0 -6 -5 -6 -11z"/>
<path d="M1975 5131 c6 -11 4 -13 -11 -7 -10 4 -15 4 -11 0 4 -4 1 -14 -6 -23
-10 -14 -10 -14 5 -3 9 8 21 11 27 8 11 -7 8 20 -4 31 -4 5 -5 2 0 -6z"/>
<path d="M2030 5121 c0 -6 4 -13 10 -16 6 -3 7 1 4 9 -7 18 -14 21 -14 7z"/>
<path d="M6007 5123 c-3 -5 6 -9 20 -10 19 -1 22 1 12 8 -17 11 -26 11 -32 2z"/>
<path d="M1830 5098 c0 -6 3 -8 7 -5 3 4 12 2 20 -5 7 -6 16 -8 20 -4 3 3 1 6
-6 6 -7 0 -10 4 -7 8 2 4 -4 9 -15 9 -10 1 -19 -3 -19 -9z"/>
<path d="M6070 5098 c0 -4 4 -8 9 -8 6 0 12 4 15 8 3 5 -1 9 -9 9 -8 0 -15 -4
-15 -9z"/>
<path d="M6130 5091 c0 -7 -4 -10 -9 -7 -11 7 -9 -21 2 -29 4 -3 5 -2 2 2 -3
3 0 12 7 20 6 7 8 16 4 20 -3 3 -6 1 -6 -6z"/>
<path d="M1910 5082 c0 -5 7 -9 15 -9 8 0 12 4 9 9 -3 4 -9 8 -15 8 -5 0 -9
-4 -9 -8z"/>
<path d="M5950 5086 c0 -2 7 -7 16 -10 8 -3 12 -2 9 4 -6 10 -25 14 -25 6z"/>
<path d="M6030 5079 c0 -5 5 -7 10 -4 6 3 10 8 10 11 0 2 -4 4 -10 4 -5 0 -10
-5 -10 -11z"/>
<path d="M1995 5069 c-4 -6 -5 -12 -2 -15 2 -3 7 2 10 11 7 17 1 20 -8 4z"/>
<path d="M1836 5055 c-9 -26 -7 -32 5 -12 6 10 9 21 6 23 -2 3 -7 -2 -11 -11z"/>
<path d="M1884 5055 c-4 -8 -11 -12 -17 -8 -6 3 -7 1 -3 -5 11 -18 23 -14 29
8 6 23 -1 27 -9 5z"/>
<path d="M1936 5047 c3 -10 9 -15 12 -12 3 3 0 11 -7 18 -10 9 -11 8 -5 -6z"/>
<path d="M5996 5047 c3 -10 9 -15 12 -12 3 3 0 11 -7 18 -10 9 -11 8 -5 -6z"/>
<path d="M6136 5042 c-3 -4 4 -9 15 -9 23 -2 25 3 4 10 -8 4 -16 3 -19 -1z"/>
<path d="M1929 5003 c-13 -16 -12 -17 4 -4 16 13 21 21 13 21 -2 0 -10 -8 -17
-17z"/>
<path d="M1790 4996 c0 -8 7 -17 16 -20 13 -5 14 -4 6 7 -7 8 -9 17 -5 20 3 4
1 7 -5 7 -7 0 -12 -6 -12 -14z"/>
<path d="M1954 4988 l-19 -23 23 19 c21 18 27 26 19 26 -2 0 -12 -10 -23 -22z"/>
<path d="M6135 5000 c3 -5 8 -10 11 -10 2 0 4 5 4 10 0 6 -5 10 -11 10 -5 0
-7 -4 -4 -10z"/>
<path d="M1756 4983 c-6 -14 -5 -15 5 -6 7 7 10 15 7 18 -3 3 -9 -2 -12 -12z"/>
<path d="M6075 4989 c-4 -6 -5 -12 -2 -15 2 -3 7 2 10 11 7 17 1 20 -8 4z"/>
<path d="M1835 4970 c-3 -6 1 -7 9 -4 18 7 21 14 7 14 -6 0 -13 -4 -16 -10z"/>
<path d="M6136 4967 c3 -10 9 -15 12 -12 3 3 0 11 -7 18 -10 9 -11 8 -5 -6z"/>
<path d="M1777 4964 c7 -3 11 -11 9 -17 -1 -7 -1 -9 1 -4 3 4 10 4 16 0 7 -4
6 1 -2 10 -7 9 -19 17 -25 16 -7 0 -7 -2 1 -5z"/>
<path d="M6170 4959 c0 -5 5 -7 10 -4 6 3 10 8 10 11 0 2 -4 4 -10 4 -5 0 -10
-5 -10 -11z"/>
<path d="M1751 4938 c3 -27 -1 -39 -13 -32 -7 4 -8 3 -4 -4 11 -18 32 -3 32
23 0 14 -4 25 -8 25 -5 0 -8 -6 -7 -12z"/>
<path d="M1828 4943 c7 -3 16 -2 19 1 4 3 -2 6 -13 5 -11 0 -14 -3 -6 -6z"/>
<path d="M1909 4937 c6 -8 7 -18 3 -22 -4 -5 -1 -5 6 -1 10 6 10 11 1 22 -6 8
-14 14 -16 14 -3 0 0 -6 6 -13z"/>
<path d="M1715 4919 c-4 -6 -5 -12 -2 -15 2 -3 7 2 10 11 7 17 1 20 -8 4z"/>
<path d="M1816 4921 c8 -8 43 -8 38 0 -2 4 -13 7 -24 6 -10 -1 -17 -3 -14 -6z"/>
<path d="M6215 4920 c-2 -3 5 -7 16 -7 10 -1 19 2 19 6 0 9 -29 10 -35 1z"/>
<path d="M1874 4896 c1 -8 5 -18 8 -22 4 -3 5 1 4 10 -1 8 -5 18 -8 22 -4 3
-5 -1 -4 -10z"/>
<path d="M1695 4880 c-3 -5 -1 -10 4 -10 6 0 11 5 11 10 0 6 -2 10 -4 10 -3 0
-8 -4 -11 -10z"/>
<path d="M1727 4879 c7 -7 15 -10 18 -7 3 3 -2 9 -12 12 -14 6 -15 5 -6 -5z"/>
<path d="M6250 4881 c0 -6 4 -13 10 -16 6 -3 7 1 4 9 -7 18 -14 21 -14 7z"/>
<path d="M1676 4843 c-6 -14 -5 -15 5 -6 7 7 10 15 7 18 -3 3 -9 -2 -12 -12z"/>
<path d="M1717 4846 c-4 -10 -3 -15 3 -11 6 3 10 1 10 -6 0 -7 3 -10 6 -6 3 3
2 13 -4 22 -8 16 -9 16 -15 1z"/>
<path d="M3020 4852 c-53 -24 -80 -65 -80 -124 0 -34 39 -110 52 -102 4 3 11
-1 14 -9 3 -8 16 -13 30 -11 13 1 24 -3 24 -9 0 -7 5 -5 10 3 9 13 10 13 10 0
0 -10 3 -11 8 -4 9 15 62 15 62 1 0 -6 3 -7 6 -4 4 4 1 13 -6 22 -18 21 -6 30
13 10 9 -9 20 -16 24 -17 18 -2 50 -35 48 -49 -2 -9 3 -16 11 -16 7 0 10 5 7
11 -4 6 9 -2 29 -19 20 -16 36 -36 35 -44 -1 -8 5 -16 13 -18 13 -4 13 -3 0 6
-8 6 -10 11 -5 11 15 -1 45 -26 45 -39 0 -6 -5 -11 -12 -11 -6 0 -8 -3 -5 -6
4 -4 14 -1 24 7 11 9 14 10 9 2 -4 -8 -2 -13 4 -13 19 0 71 -41 65 -51 -4 -5
-2 -9 2 -9 11 0 33 21 33 32 0 9 -34 43 -94 93 -55 45 -61 51 -141 120 -32 28
-62 51 -66 53 -5 2 -4 12 2 23 13 25 4 82 -17 115 -30 45 -105 67 -154 46z"/>
<path d="M1760 4840 c-12 -7 -10 -9 8 -7 12 0 22 5 22 9 0 11 -12 10 -30 -2z"/>
<path d="M1841 4836 c-9 -11 -9 -16 1 -22 7 -4 10 -4 6 1 -4 4 -3 14 3 22 6 7
9 13 6 13 -2 0 -10 -6 -16 -14z"/>
<path d="M6239 4833 c-13 -16 -12 -17 4 -4 9 7 17 15 17 17 0 8 -8 3 -21 -13z"/>
<path d="M6270 4836 c0 -2 8 -10 18 -17 15 -13 16 -12 3 4 -13 16 -21 21 -21
13z"/>
<path d="M1694 4822 c3 -5 0 -13 -6 -15 -9 -4 -10 -6 -1 -6 17 -1 25 16 12 25
-7 4 -9 3 -5 -4z"/>
<path d="M1670 4780 c0 -5 5 -10 10 -10 6 0 10 5 10 10 0 6 -4 10 -10 10 -5 0
-10 -4 -10 -10z"/>
<path d="M1790 4781 c0 -5 8 -15 18 -22 15 -12 16 -12 5 2 -7 9 -10 19 -6 22
3 4 1 7 -5 7 -7 0 -12 -4 -12 -9z"/>
<path d="M1826 4778 c3 -5 10 -6 15 -3 13 9 11 12 -6 12 -8 0 -12 -4 -9 -9z"/>
<path d="M4745 4744 c-16 -14 -50 -44 -75 -67 -25 -23 -85 -78 -135 -122 -49
-44 -99 -89 -111 -100 -16 -16 -147 -135 -218 -200 -6 -5 -41 -38 -78 -72
l-67 -62 -54 6 c-32 3 -62 1 -75 -6 -20 -10 -28 -7 -70 32 -26 24 -74 65 -107
93 -33 27 -62 52 -65 55 -17 19 -58 39 -81 39 -56 0 -99 -63 -74 -109 6 -12
71 -72 145 -134 124 -104 134 -115 145 -160 18 -70 26 -75 80 -49 56 27 109
28 166 3 24 -11 47 -17 52 -14 12 7 28 52 33 92 5 36 8 40 148 165 89 80 96
86 205 186 101 92 107 98 231 210 138 125 140 127 140 167 0 70 -77 97 -135
47z"/>
<path d="M1713 4745 c0 -8 4 -12 9 -9 5 3 6 10 3 15 -9 13 -12 11 -12 -6z"/>
<path d="M1670 4745 c0 -5 5 -17 10 -25 5 -8 10 -10 10 -5 0 6 -5 17 -10 25
-5 8 -10 11 -10 5z"/>
<path d="M1621 4713 c-10 -26 -10 -27 4 -9 8 11 15 23 15 28 0 15 -7 8 -19
-19z"/>
<path d="M6270 4736 c0 -2 8 -10 18 -17 15 -13 16 -12 3 4 -13 16 -21 21 -21
13z"/>
<path d="M1733 4713 c0 -9 4 -10 12 -3 7 5 15 7 18 3 4 -3 7 -1 7 5 0 6 -8 10
-18 9 -10 0 -19 -7 -19 -14z"/>
<path d="M1637 4695 c-4 -8 -3 -16 1 -19 4 -3 9 4 9 15 2 23 -3 25 -10 4z"/>
<path d="M1750 4686 c0 -2 7 -7 16 -10 8 -3 12 -2 9 4 -6 10 -25 14 -25 6z"/>
<path d="M1593 4665 c0 -8 4 -12 9 -9 4 3 8 9 8 15 0 5 -4 9 -8 9 -5 0 -9 -7
-9 -15z"/>
<path d="M1675 4651 c4 -8 2 -17 -6 -22 -9 -6 -10 -9 -2 -9 19 0 27 21 13 33
-10 9 -11 9 -5 -2z"/>
<path d="M1610 4640 c0 -5 5 -10 10 -10 6 0 10 5 10 10 0 6 -4 10 -10 10 -5 0
-10 -4 -10 -10z"/>
<path d="M6326 4618 c3 -5 10 -6 15 -3 13 9 11 12 -6 12 -8 0 -12 -4 -9 -9z"/>
<path d="M1584 4598 c-4 -7 -4 -10 1 -6 4 4 16 3 26 -3 11 -5 19 -7 19 -5 0 3
-9 10 -19 16 -15 7 -22 7 -27 -2z"/>
<path d="M1653 4593 c0 -9 4 -10 14 -2 7 6 13 12 13 14 0 1 -6 2 -13 2 -8 0
-14 -6 -14 -14z"/>
<path d="M3180 4602 c0 -4 10 -13 23 -21 22 -14 22 -14 3 8 -20 22 -26 25 -26
13z"/>
<path d="M1676 4582 c-3 -5 1 -9 9 -9 8 0 12 4 9 9 -3 4 -7 8 -9 8 -2 0 -6 -4
-9 -8z"/>
<path d="M1710 4581 c0 -5 8 -15 18 -22 15 -12 16 -12 5 2 -7 9 -10 19 -6 22
3 4 1 7 -5 7 -7 0 -12 -4 -12 -9z"/>
<path d="M1579 4578 c-8 -27 -5 -36 9 -30 10 4 12 7 4 10 -7 2 -10 8 -6 13 3
5 3 9 0 9 -3 0 -6 -1 -7 -2z"/>
<path d="M1636 4553 c-6 -14 -5 -15 5 -6 7 7 10 15 7 18 -3 3 -9 -2 -12 -12z"/>
<path d="M1786 4555 c-23 -24 -29 -54 -15 -87 10 -25 32 -39 128 -85 64 -30
143 -68 176 -85 105 -53 142 -41 183 59 27 64 28 87 2 113 -30 30 -77 26 -108
-8 l-26 -29 -138 69 c-141 70 -176 79 -202 53z"/>
<path d="M6005 4514 c-61 -31 -120 -63 -132 -70 -13 -8 -23 -10 -23 -4 0 23
-41 50 -75 50 -66 0 -91 -52 -60 -126 8 -20 12 -41 8 -48 -3 -6 -3 -8 1 -5 4
4 20 -6 35 -22 20 -20 36 -27 53 -24 37 7 372 170 387 189 21 25 16 78 -10 98
-34 29 -68 22 -184 -38z"/>
<path d="M1553 4525 c0 -14 3 -25 8 -25 4 0 6 10 4 21 -6 32 -12 34 -12 4z"/>
<path d="M1599 4528 c15 -21 31 -23 31 -6 0 6 -3 8 -7 5 -3 -4 -13 -1 -22 6
-14 11 -14 10 -2 -5z"/>
<path d="M1652 4531 c-11 -6 -10 -10 0 -19 11 -8 14 -7 14 9 0 10 0 19 -1 19
0 0 -6 -4 -13 -9z"/>
<path d="M1699 4513 c-13 -17 -13 -17 6 -3 11 8 22 16 24 17 2 2 0 3 -6 3 -6
0 -17 -8 -24 -17z"/>
<path d="M3270 4523 c0 -6 8 -17 18 -24 16 -13 16 -13 2 6 -8 11 -16 22 -17
24 -2 2 -3 0 -3 -6z"/>
<path d="M1639 4469 l-24 -20 28 17 c15 9 27 18 27 20 0 8 -8 4 -31 -17z"/>
<path d="M1693 4475 c0 -8 4 -12 9 -9 5 3 6 10 3 15 -9 13 -12 11 -12 -6z"/>
<path d="M1660 4449 c0 -5 -4 -7 -10 -4 -14 9 -12 -1 3 -13 10 -8 13 -6 14 9
1 10 0 19 -3 19 -2 0 -4 -5 -4 -11z"/>
<path d="M1553 4430 c-1 -11 2 -22 6 -24 4 -3 7 4 6 14 -2 27 -10 33 -12 10z"/>
<path d="M1634 4383 c-1 -32 5 -40 10 -11 1 7 5 18 9 24 4 7 1 14 -6 17 -8 3
-12 -7 -13 -30z"/>
<path d="M1599 4373 c-13 -16 -12 -17 4 -4 16 13 21 21 13 21 -2 0 -10 -8 -17
-17z"/>
<path d="M1533 4367 c0 -8 6 -14 14 -14 9 0 10 4 2 14 -6 7 -12 13 -14 13 -1
0 -2 -6 -2 -13z"/>
<path d="M1470 4356 c0 -2 9 -6 20 -9 11 -3 18 -1 14 4 -5 9 -34 13 -34 5z"/>
<path d="M1518 4316 c-13 -18 -13 -23 -3 -23 8 0 11 5 8 10 -4 6 0 8 9 4 12
-4 14 -1 11 14 -6 23 -4 23 -25 -5z"/>
<path d="M1577 4290 c18 -20 43 -22 35 -2 -4 11 -7 12 -10 4 -3 -10 -7 -10
-20 0 -14 10 -15 10 -5 -2z"/>
<path d="M1549 4277 c6 -8 7 -18 3 -22 -4 -5 -1 -5 6 -1 10 6 10 11 1 22 -6 8
-14 14 -16 14 -3 0 0 -6 6 -13z"/>
<path d="M1484 4259 c-3 -6 -2 -15 3 -20 5 -5 9 -1 9 11 0 23 -2 24 -12 9z"/>
<path d="M1510 4266 c0 -2 7 -7 16 -10 8 -3 12 -2 9 4 -6 10 -25 14 -25 6z"/>
<path d="M1454 4198 c-4 -5 -3 -12 0 -15 3 -4 6 -1 6 5 0 6 7 9 15 6 8 -4 15
-2 15 3 0 12 -29 13 -36 1z"/>
<path d="M1436 4158 c3 -5 10 -6 15 -3 13 9 11 12 -6 12 -8 0 -12 -4 -9 -9z"/>
<path d="M1564 4158 c10 -6 22 -6 26 -2 5 5 -3 10 -18 11 -22 1 -24 0 -8 -9z"/>
<path d="M1420 4140 c8 -5 20 -10 25 -10 6 0 3 5 -5 10 -8 5 -19 10 -25 10 -5
0 -3 -5 5 -10z"/>
<path d="M1540 4146 c0 -2 8 -10 18 -17 15 -13 16 -12 3 4 -13 16 -21 21 -21
13z"/>
<path d="M1461 4137 c2 -1 13 -10 25 -20 17 -14 21 -14 21 -2 0 8 -4 12 -8 9
-4 -2 -10 0 -14 6 -3 5 -11 10 -17 10 -6 0 -9 -1 -7 -3z"/>
<path d="M1672 4133 c-22 -4 -48 -44 -47 -73 0 -8 7 -25 16 -37 16 -23 29 -27
249 -67 172 -31 186 -31 214 -3 38 38 36 90 -5 128 -34 31 -54 35 -93 18 -20
-10 -48 -8 -133 9 -136 26 -172 30 -201 25z"/>
<path d="M6205 4130 c-123 -33 -186 -42 -222 -33 -78 19 -133 -23 -126 -96 7
-70 46 -81 183 -52 52 11 111 23 130 26 19 3 42 8 50 10 8 2 27 6 43 9 50 9
62 16 79 43 39 69 -36 120 -137 93z"/>
<path d="M1544 4098 c10 -6 22 -6 26 -2 5 5 -3 10 -18 11 -22 1 -24 0 -8 -9z"/>
<path d="M1496 4073 c-6 -14 -5 -15 5 -6 7 7 10 15 7 18 -3 3 -9 -2 -12 -12z"/>
<path d="M1417 4031 c-10 -14 -10 -14 4 -4 9 7 18 10 21 7 3 -3 8 -1 12 4 9
16 -24 9 -37 -7z"/>
<path d="M1473 4027 c0 -8 6 -14 14 -14 9 0 10 4 2 14 -6 7 -12 13 -14 13 -1
0 -2 -6 -2 -13z"/>
<path d="M1438 4013 c7 -3 16 -2 19 1 4 3 -2 6 -13 5 -11 0 -14 -3 -6 -6z"/>
<path d="M1555 4010 c-4 -6 -10 -8 -15 -5 -5 3 -11 1 -14 -4 -8 -13 22 -7 36
7 7 7 9 12 6 12 -4 0 -10 -5 -13 -10z"/>
<path d="M1399 4003 c-5 -38 -5 -64 0 -67 3 -2 7 13 7 35 1 21 -1 39 -2 39 -2
0 -4 -3 -5 -7z"/>
<path d="M1435 3940 c-16 -7 -17 -9 -3 -9 9 -1 20 4 23 9 7 11 7 11 -20 0z"/>
<path d="M1459 3913 c-13 -17 -13 -17 6 -3 11 8 22 16 24 17 2 2 0 3 -6 3 -6
0 -17 -8 -24 -17z"/>
<path d="M1373 3895 c-4 -5 -3 -7 2 -3 4 4 14 3 20 -2 9 -7 14 -7 18 3 6 15
-32 18 -40 2z"/>
<path d="M1481 3896 c-7 -8 -21 -13 -31 -11 -11 2 -22 0 -24 -4 -10 -15 44 -5
61 12 10 9 15 17 11 17 -3 0 -11 -6 -17 -14z"/>
<path d="M2271 3878 c-8 -22 -13 -51 -27 -150 -3 -24 -17 -122 -31 -218 -28
-187 -35 -405 -16 -470 39 -133 149 -278 275 -360 131 -86 273 -121 488 -123
179 -1 307 20 487 78 66 22 176 67 188 77 5 4 15 8 21 8 23 0 103 60 110 83 4
12 7 35 5 50 -1 16 2 27 6 25 36 -17 67 -31 123 -53 36 -15 79 -32 95 -40 17
-7 59 -25 95 -39 36 -15 74 -31 85 -36 170 -75 362 -150 450 -176 69 -20 86
-31 62 -40 -9 -3 -14 -11 -10 -18 3 -6 3 -8 -2 -4 -4 4 -16 3 -26 -2 -14 -8
-23 -4 -44 17 -14 15 -25 22 -25 15 0 -7 11 -24 25 -38 34 -34 32 -41 -4 -12
-15 13 -26 26 -24 31 2 4 -3 7 -11 7 -9 0 -16 -4 -16 -8 0 -5 -12 -14 -27 -21
-28 -12 -28 -12 -8 6 11 10 32 26 46 35 25 16 27 15 51 -7 16 -15 30 -20 38
-15 11 7 7 12 -13 21 -14 6 -24 15 -22 19 2 4 -6 6 -18 5 -12 0 -29 2 -38 7
-12 5 -16 3 -15 -9 0 -10 -7 -18 -17 -19 -12 -1 -13 0 -2 3 8 2 15 8 15 13 0
12 -28 32 -38 26 -5 -3 -20 1 -35 9 -31 16 -36 7 -9 -16 10 -9 28 -14 40 -12
21 3 21 2 5 -17 -21 -24 -24 -25 -17 -6 4 11 -1 13 -25 10 -18 -3 -31 -1 -31
5 0 6 8 8 18 5 16 -5 16 -5 0 9 -10 8 -18 19 -18 26 0 13 -13 15 -24 4 -4 -5
-25 -9 -47 -9 -35 -2 -38 0 -22 11 21 16 17 22 -17 27 -14 2 -31 7 -38 12 -7
4 -16 6 -18 3 -3 -3 -18 -2 -33 3 -17 4 -35 3 -47 -3 -26 -15 -44 -17 -44 -5
0 6 6 8 14 5 8 -3 20 0 26 8 9 11 8 14 -7 13 -10 0 -25 1 -33 3 -11 3 -14 -3
-12 -20 1 -14 -6 -32 -18 -43 -11 -10 -20 -14 -20 -8 0 6 7 13 15 16 8 4 15
13 15 21 0 12 -2 12 -16 -1 -20 -21 -26 -20 -58 7 -16 14 -26 32 -24 43 2 12
-3 19 -12 20 -8 0 -25 4 -38 8 -31 10 -55 -9 -42 -34 5 -9 6 -21 2 -25 -4 -5
-1 -5 6 -1 7 5 11 14 8 22 -3 8 -1 14 4 14 5 0 12 -9 15 -20 3 -11 13 -20 21
-20 19 0 18 10 -3 25 -13 9 -13 14 -3 20 9 5 11 4 6 -3 -4 -7 -3 -12 3 -12 5
0 12 5 14 10 3 6 4 5 3 -2 -2 -7 1 -21 6 -32 8 -14 7 -17 -4 -10 -10 6 -10 4
1 -10 8 -9 17 -13 20 -8 3 5 14 1 25 -9 18 -17 17 -18 -19 -13 -46 6 -57 12
-49 26 4 7 2 8 -5 4 -6 -4 -9 -12 -6 -17 4 -5 -3 -9 -15 -9 -12 0 -19 4 -16 9
3 5 -12 7 -34 6 -22 -2 -42 1 -45 5 -3 5 -14 6 -26 3 -12 -4 -25 0 -30 8 -5 8
-9 9 -9 4 0 -6 -20 -11 -44 -12 -52 -2 -81 -15 -96 -43 -23 -43 29 -83 122
-95 104 -13 188 -30 413 -86 226 -55 361 -83 465 -95 25 -2 74 -8 110 -12 102
-12 432 -3 515 13 11 2 45 7 76 10 31 3 67 8 80 10 13 3 58 11 99 19 141 28
338 79 460 122 41 14 82 27 91 29 8 2 32 10 53 19 21 9 42 14 46 11 5 -3 10
-2 12 2 1 5 26 19 53 33 232 116 244 403 22 528 -67 39 -119 49 -342 67 -38 3
-86 8 -105 10 -19 3 -60 7 -90 10 -280 28 -373 55 -496 145 -61 46 -73 51
-109 48 -22 -3 -47 -8 -55 -11 -10 -5 -24 6 -45 37 -40 59 -87 81 -156 72 -47
-6 -53 -5 -75 21 -13 15 -24 31 -24 35 0 3 -22 17 -50 31 -44 22 -55 24 -96
15 -40 -9 -49 -8 -59 6 -7 9 -21 28 -31 42 -43 57 -113 78 -176 50 -12 -6 -24
4 -48 38 -41 60 -79 80 -143 73 -41 -3 -55 -1 -71 15 -35 32 -87 50 -136 45
-35 -3 -70 -19 -150 -71 -227 -146 -378 -194 -620 -196 -41 -1 -85 1 -98 4
-12 3 -20 1 -18 -3 6 -9 128 -70 136 -69 3 1 14 -4 26 -10 33 -17 72 -24 169
-27 187 -7 301 37 543 211 18 13 28 15 47 6 20 -9 23 -17 22 -57 -2 -38 2 -50
22 -66 34 -28 66 -24 101 12 16 18 30 36 30 40 0 14 26 10 59 -8 29 -17 30
-20 25 -68 -5 -43 -3 -53 15 -69 35 -32 80 -25 116 17 18 21 35 37 39 37 3 0
24 -11 46 -25 34 -22 39 -28 30 -45 -17 -32 -11 -70 15 -95 35 -36 57 -31 108
21 l45 47 30 -22 c17 -11 35 -21 41 -21 14 0 14 -17 1 -25 -5 -3 -10 -22 -10
-41 0 -45 29 -74 74 -74 27 0 40 7 64 37 l29 37 39 -15 c38 -15 39 -16 36 -61
-4 -59 21 -92 70 -92 27 0 42 8 66 35 27 30 32 32 44 18 39 -48 170 -112 270
-133 95 -20 172 -31 353 -51 22 -2 94 -7 160 -10 157 -8 215 -20 264 -55 43
-32 62 -59 66 -96 2 -20 0 -22 -12 -12 -12 9 -14 9 -13 -3 4 -26 0 -40 -9 -35
-5 3 -11 -1 -15 -9 -3 -8 -12 -15 -21 -15 -18 0 -20 16 -3 26 7 4 8 3 4 -4 -4
-7 -2 -12 3 -12 13 0 14 10 1 30 -6 10 -10 11 -10 3 0 -7 -12 -16 -27 -19 -23
-6 -24 -8 -10 -19 10 -7 17 -16 17 -20 0 -4 -7 -2 -15 5 -8 6 -20 8 -26 4 -8
-5 -9 -3 -3 7 6 10 0 9 -19 -3 -14 -10 -33 -18 -40 -18 -8 0 -20 -7 -27 -15
-7 -8 -17 -12 -24 -8 -8 4 -7 2 1 -7 6 -7 9 -19 6 -26 -6 -16 13 -19 20 -4 3
6 4 5 3 -2 -5 -25 -27 -18 -40 12 -8 21 -16 28 -20 21 -4 -7 -2 -18 4 -26 7
-8 9 -15 4 -15 -5 -1 2 -7 16 -16 l25 -15 -25 7 c-20 5 -23 4 -12 -7 6 -7 12
-18 12 -23 0 -6 -5 -3 -11 7 -10 16 -13 17 -27 4 -10 -8 -33 -22 -52 -31 -25
-12 -30 -13 -17 -2 11 8 14 17 8 20 -5 4 -16 -2 -23 -12 -13 -18 -38 -37 -38
-29 0 10 38 46 50 49 16 3 40 23 40 33 0 3 -8 5 -17 3 -22 -4 -103 -80 -97
-90 3 -4 -2 -5 -10 -2 -9 3 -16 1 -16 -5 0 -6 -5 -11 -11 -11 -5 0 -7 5 -4 10
10 17 -7 11 -20 -7 -11 -15 -14 -14 -35 7 -15 15 -17 21 -7 17 24 -9 43 19 26
41 -12 15 -12 16 2 5 9 -7 18 -10 22 -7 3 3 15 3 28 -1 17 -6 19 -9 8 -16 -8
-5 -18 -9 -24 -9 -5 0 -3 5 5 10 13 9 13 10 0 10 -18 -1 -53 -47 -41 -54 5 -3
12 1 15 10 4 10 12 14 22 10 10 -4 31 10 62 40 46 46 85 64 97 43 4 -5 -1 -19
-11 -30 -9 -10 -13 -19 -7 -19 14 0 57 38 59 53 2 16 -23 39 -31 28 -3 -5 -1
-12 5 -16 5 -3 10 -11 10 -18 0 -6 -8 0 -17 13 -10 14 -17 29 -15 33 1 5 -2 6
-8 2 -6 -3 -8 -11 -5 -16 4 -5 -1 -10 -9 -10 -20 -2 -26 -4 -50 -14 -11 -5
-34 -9 -52 -9 -25 -1 -30 -4 -22 -13 15 -19 -2 -16 -26 5 -20 16 -20 16 -7 -1
13 -16 12 -18 -12 -13 -24 4 -26 2 -17 -14 13 -24 13 -30 0 -30 -5 0 -9 5 -7
12 1 6 -6 14 -15 16 -10 2 -18 -1 -18 -7 0 -6 5 -11 11 -11 5 0 7 -5 3 -11 -4
-8 -12 -2 -21 15 -15 28 -26 36 -17 11 7 -18 -7 -20 -25 -2 -9 8 -8 1 3 -19 8
-18 28 -42 43 -54 15 -12 22 -19 15 -15 -7 4 -19 2 -27 -5 -10 -8 -15 -8 -20
0 -5 8 -12 5 -21 -7 -13 -17 -14 -17 -8 2 6 20 5 20 -10 1 -9 -11 -16 -15 -16
-10 0 6 5 15 12 22 7 7 8 12 2 12 -5 0 -14 -4 -19 -9 -6 -6 -17 0 -28 14 -13
18 -14 25 -5 31 7 4 10 4 6 -1 -8 -8 20 -40 28 -32 3 3 -2 17 -11 31 -15 23
-19 24 -37 12 -11 -8 -27 -12 -34 -9 -8 3 -14 -1 -14 -11 0 -9 -4 -16 -10 -16
-5 0 -7 8 -4 18 5 14 3 14 -10 -2 -9 -11 -17 -15 -17 -8 -3 26 -4 31 -11 37
-3 4 -5 -1 -4 -12 2 -13 -5 -19 -23 -23 -14 -3 -30 -15 -36 -28 -5 -12 -13
-22 -18 -22 -4 0 -3 10 4 21 10 20 9 21 -15 17 -15 -3 -29 -1 -32 3 -3 5 -11
9 -17 9 -7 0 -6 -4 3 -10 13 -9 13 -10 0 -11 -8 -1 -24 -1 -35 0 l-20 1 20 -9
c19 -9 19 -10 -2 -10 -13 -1 -23 3 -23 7 0 4 -9 8 -20 8 -11 0 -20 -4 -20 -7
0 -4 -7 -14 -15 -23 -14 -14 -14 -17 5 -36 11 -11 24 -20 29 -20 6 0 12 -4 15
-9 4 -5 -3 -7 -15 -4 -11 3 -23 12 -26 19 -3 8 -9 12 -13 9 -10 -6 -22 24 -14
37 4 6 -1 8 -14 4 -15 -5 -22 -2 -27 14 -5 17 -10 19 -20 10 -8 -7 -20 -8 -26
-4 -8 4 -9 3 -5 -4 5 -8 2 -10 -8 -6 -9 3 -13 10 -10 15 3 5 -2 6 -10 3 -10
-4 -16 -1 -16 7 0 7 -3 9 -7 6 -3 -4 -20 2 -37 12 -17 11 -59 33 -94 51 -34
17 -60 36 -57 41 3 5 0 6 -8 4 -7 -3 -30 6 -51 20 -20 14 -39 25 -42 25 -4 0
-45 19 -93 41 -129 62 -402 189 -406 189 -1 0 -46 20 -98 45 -53 25 -99 45
-102 45 -4 0 -30 11 -58 23 -57 26 -480 195 -617 247 -278 106 -389 156 -455
205 -82 61 -173 179 -236 307 -22 42 -49 84 -61 92 -18 13 -54 16 -185 16
-160 0 -164 0 -172 -22z m314 -248 c69 -131 94 -174 115 -199 44 -52 80 -90
115 -120 22 -19 39 -39 37 -44 -1 -5 2 -6 7 -3 12 8 141 -60 133 -70 -4 -4 -2
-4 4 -1 6 4 30 -3 53 -14 41 -20 92 -41 101 -43 9 -2 165 -67 200 -84 35 -16
41 -18 61 -21 5 0 8 -5 4 -10 -3 -5 0 -13 6 -17 8 -4 9 -3 5 4 -9 15 -7 15 32
1 18 -6 29 -16 25 -22 -3 -6 -1 -7 6 -3 15 9 71 -15 71 -31 0 -7 -11 -10 -27
-8 -16 2 -22 2 -15 -1 6 -3 9 -10 6 -15 -3 -6 -15 -4 -29 5 -15 10 -26 12 -30
6 -4 -6 -1 -9 6 -8 6 2 14 -3 16 -9 3 -9 -6 -13 -26 -14 -17 -1 -35 -3 -41 -4
-5 -1 -15 -3 -21 -4 -5 0 -7 -5 -4 -11 4 -6 -1 -7 -11 -3 -11 4 -15 3 -11 -4
4 -6 0 -18 -8 -27 -8 -8 -11 -17 -6 -21 5 -3 16 4 24 15 7 11 17 17 20 13 6
-6 11 11 8 30 -2 10 7 9 14 -3 10 -16 -55 -74 -68 -61 -20 20 -31 11 -12 -9
22 -24 13 -27 -10 -4 -9 9 -19 13 -23 9 -4 -4 4 -15 17 -26 13 -11 22 -22 19
-24 -2 -3 -15 5 -27 16 -12 12 -25 18 -29 14 -4 -4 4 -15 17 -26 13 -10 19
-19 13 -19 -16 0 -43 31 -39 44 2 6 23 24 46 40 42 28 51 47 12 27 -18 -10
-20 -9 -15 6 5 14 4 15 -4 4 -6 -8 -26 -15 -44 -15 -20 -1 -35 -6 -35 -13 0
-7 4 -10 9 -7 4 3 8 0 8 -5 0 -6 -7 -11 -15 -11 -13 0 -19 12 -16 32 0 4 -6 5
-15 1 -13 -5 -13 -8 -2 -15 9 -7 7 -8 -10 -5 -12 3 -20 1 -16 -4 3 -5 12 -9
20 -9 8 0 14 -5 14 -11 0 -6 -16 -2 -35 10 -33 19 -35 19 -25 2 5 -11 15 -21
21 -23 6 -2 -7 -22 -30 -44 -22 -23 -39 -43 -37 -45 2 -2 -11 -4 -29 -4 -18 0
-31 4 -28 8 3 5 11 6 19 3 14 -5 94 60 94 76 0 5 -15 -2 -34 -14 -19 -13 -32
-26 -30 -30 3 -5 3 -8 0 -8 -2 0 -12 -3 -22 -7 -16 -6 -16 -5 1 14 11 11 32
28 47 38 15 9 25 21 22 26 -6 11 -63 8 -70 -3 -3 -4 -10 -5 -18 -2 -8 3 -12
-3 -12 -17 1 -30 -16 -34 -33 -7 -14 23 -14 23 8 4 17 -16 21 -16 21 -4 0 20
-29 31 -45 18 -9 -8 -15 -8 -20 0 -5 8 -11 8 -21 -1 -13 -10 -9 -17 21 -46 19
-18 35 -37 35 -43 0 -6 -18 9 -40 32 l-40 43 -41 -43 c-23 -23 -44 -40 -46
-38 -3 3 13 22 36 42 44 41 50 54 24 54 -9 0 -14 -3 -10 -6 3 -3 -12 -22 -33
-42 -22 -19 -37 -39 -34 -44 3 -4 -1 -5 -9 -2 -10 4 -3 16 25 44 22 21 38 45
35 52 -2 7 3 22 12 33 16 20 16 20 -6 1 -12 -10 -21 -21 -20 -25 2 -8 -26 -51
-34 -51 -4 0 -9 7 -12 14 -4 11 -1 13 10 9 11 -5 14 -3 9 6 -5 7 -17 11 -27 8
-10 -3 -22 0 -26 5 -3 7 -1 8 5 4 7 -4 12 -3 12 3 0 5 -9 9 -20 8 -27 -2 -25
-7 11 -41 23 -22 27 -31 17 -37 -21 -14 -26 -11 -63 28 -19 20 -35 31 -35 24
0 -7 15 -28 34 -47 19 -19 30 -34 26 -34 -5 0 -12 5 -15 10 -4 6 -11 7 -17 4
-7 -4 -8 -2 -4 4 4 7 3 12 -3 12 -5 0 -13 9 -16 21 l-7 20 -18 -20 c-9 -12
-21 -21 -25 -21 -4 0 5 14 19 31 27 31 27 33 -2 69 -3 3 -1 -5 2 -17 5 -15 0
-28 -19 -47 -30 -30 -47 -36 -21 -7 10 11 14 26 10 37 -5 15 -4 16 5 4 5 -8
13 -12 16 -8 9 9 -10 41 -26 44 -8 2 -25 6 -39 9 -24 6 -24 6 -6 -9 11 -9 18
-17 15 -19 -2 -1 -14 -11 -26 -21 -26 -22 -31 -15 -7 9 23 23 10 31 -13 8 -11
-10 -26 -19 -34 -21 -8 -1 -3 7 11 18 14 11 29 20 34 20 5 0 6 3 3 7 -4 3 -1
13 6 21 9 13 9 14 0 8 -8 -4 -13 -2 -14 6 -1 7 -4 3 -7 -10 -4 -13 -11 -22
-15 -20 -5 2 -13 -5 -18 -14 -6 -10 -14 -18 -19 -18 -6 0 -2 9 7 19 9 11 20
18 25 15 4 -3 8 4 8 15 0 12 -2 21 -4 21 -2 0 -13 3 -23 7 -15 6 -16 5 -5 -9
9 -12 10 -18 2 -23 -6 -4 -14 -4 -17 -1 -3 3 -15 0 -27 -6 -11 -6 -18 -7 -14
-3 3 3 -6 19 -21 33 -15 15 -17 19 -5 9 12 -10 36 -20 54 -22 27 -4 30 -2 19
11 -7 8 -17 13 -24 10 -15 -5 -99 51 -86 58 10 6 33 66 25 66 -2 0 -13 -14
-23 -30 -21 -36 -32 -29 -57 41 -28 80 -36 163 -22 256 4 32 10 76 13 98 3 22
7 51 10 65 2 13 7 40 9 60 3 19 8 55 12 80 4 25 6 55 6 68 -1 12 3 22 8 22 5
0 7 7 4 15 -13 32 3 42 62 40 l59 -1 60 -114z m1005 -681 c0 -5 4 -7 10 -4 6
4 7 -1 3 -12 -4 -14 -3 -15 6 -7 13 12 51 7 51 -7 0 -4 -5 -11 -10 -14 -6 -4
-7 -12 -4 -18 4 -7 4 -9 -1 -5 -4 4 -14 3 -22 -3 -7 -6 -13 -8 -13 -4 0 4 -7
1 -16 -6 -23 -19 -37 -18 -56 3 -19 19 -10 26 9 7 9 -9 19 -6 39 10 16 12 21
21 12 21 -8 0 -19 -5 -26 -12 -8 -8 -15 -8 -25 1 -8 6 -22 9 -31 5 -9 -3 -16
-1 -16 6 0 6 4 9 9 5 5 -3 12 -1 16 5 9 15 25 12 25 -5 0 -8 4 -15 9 -15 5 0
7 9 4 20 -3 12 0 20 6 20 7 0 9 5 6 10 -3 6 -1 10 4 10 6 0 11 -5 11 -11z
m100 -43 c0 -2 -7 -7 -16 -10 -8 -3 -12 -2 -9 4 6 10 25 14 25 6z m-223 -21
c0 -8 -4 -12 -9 -9 -4 3 -8 0 -8 -5 0 -6 -5 -11 -10 -11 -6 0 -5 8 2 20 15 24
25 26 25 5z m35 1 c7 4 8 2 4 -4 -11 -18 -26 -14 -25 6 0 10 3 12 6 4 2 -6 10
-9 15 -6z m32 -32 c6 -15 4 -15 -11 -3 -15 12 -16 12 -10 -3 8 -22 -11 -34
-26 -19 -9 9 -7 10 8 5 17 -7 18 -6 7 8 -10 13 -10 17 0 21 22 9 26 8 32 -9z
m-1004 2 c0 -2 -7 -7 -16 -10 -8 -3 -12 -2 -9 4 6 10 25 14 25 6z m765 -12
c-9 -9 -19 -13 -23 -10 -3 4 0 11 8 16 24 15 33 11 15 -6z m177 9 c-6 -2 -10
-9 -6 -14 3 -5 0 -9 -5 -9 -12 0 -14 13 -4 23 3 4 11 7 17 6 6 0 5 -3 -2 -6z
m-32 -7 c0 -3 -4 -8 -10 -11 -5 -3 -10 -1 -10 4 0 6 5 11 10 11 6 0 10 -2 10
-4z m-792 -31 c0 -13 -8 -30 -16 -37 -11 -9 -14 -9 -9 -1 4 6 3 14 -3 18 -5 3
-10 1 -10 -4 0 -6 -6 -11 -12 -11 -10 0 16 31 48 59 1 1 2 -10 2 -24z m762 15
c0 -5 -10 -15 -22 -21 l-23 -12 20 21 c23 24 25 25 25 12z m-285 -24 c-11 -8
-23 -12 -27 -10 -5 3 -8 0 -8 -5 0 -6 -5 -11 -11 -11 -8 0 -8 5 1 15 7 8 16
12 21 9 5 -3 9 0 9 5 0 6 8 11 17 11 15 0 14 -2 -2 -14z m155 -41 c11 -14 6
-13 -17 5 -18 14 -32 31 -32 38 -1 12 20 -6 49 -43z m-10 45 c0 -5 -2 -10 -4
-10 -3 0 -8 5 -11 10 -3 6 -1 10 4 10 6 0 11 -4 11 -10z m203 -3 c-2 -4 -14
-5 -25 -1 -13 4 -24 0 -32 -12 -10 -13 -15 -14 -21 -4 -5 8 -4 11 2 7 6 -4 13
0 16 8 4 9 17 13 36 12 16 -1 27 -6 24 -10z m-449 -46 c17 -20 20 -21 28 -7 5
9 13 16 19 16 5 0 1 -9 -9 -20 l-19 -21 -37 37 c-20 20 -36 38 -36 41 0 8 33
-19 54 -46z m356 19 c0 -5 -2 -10 -4 -10 -3 0 -8 5 -11 10 -3 6 -1 10 4 10 6
0 11 -4 11 -10z m2884 -29 c-10 -11 -22 -17 -27 -14 -5 3 -7 -5 -3 -18 3 -13
3 -18 0 -11 -3 6 -9 10 -13 8 -4 -3 -8 1 -8 9 0 13 10 19 28 17 3 -1 12 10 20
24 7 14 15 21 17 16 2 -6 -5 -20 -14 -31z m-3078 10 c-10 -11 -16 -24 -13 -28
3 -5 -3 -9 -14 -9 -24 0 -24 0 6 31 30 29 46 34 21 6z m64 -1 c13 -11 20 -20
16 -20 -4 0 -19 9 -33 20 -14 11 -21 20 -16 20 6 0 20 -9 33 -20z m-279 -21
c18 -16 26 -29 18 -27 -15 3 -26 13 -48 41 -21 27 -7 20 30 -14z m252 -2 c-5
-8 -8 -7 -11 1 -2 7 -9 9 -14 6 -7 -4 -8 -2 -4 4 4 6 13 9 21 6 8 -4 12 -11 8
-17z m-290 -1 c4 -11 1 -13 -10 -9 -12 5 -14 3 -8 -7 5 -8 4 -11 -3 -6 -12 7
-5 36 8 36 4 0 10 -7 13 -14z m3263 -11 c-3 -8 2 -19 12 -24 16 -10 16 -10 0
-11 -9 0 -18 6 -21 13 -4 13 2 37 10 37 3 0 3 -7 -1 -15z m-73 -1 c-8 -4 -5
-13 9 -29 12 -14 25 -22 30 -19 4 3 1 12 -7 20 -18 18 -20 34 -3 34 6 0 9 -3
5 -6 -3 -4 1 -13 9 -21 11 -12 12 -18 3 -29 -9 -12 -17 -9 -43 14 -30 25 -30
43 -1 41 6 0 5 -3 -2 -5z m-60 -19 c-3 -9 -8 -14 -10 -11 -3 3 -2 9 2 15 9 16
15 13 8 -4z m35 -14 c11 -7 10 -9 -3 -15 -9 -3 -13 -11 -9 -17 3 -6 0 -15 -7
-20 -21 -13 -36 -10 -18 4 9 7 14 22 13 35 -4 23 3 27 24 13z m37 -30 c3 -5 0
-13 -6 -17 -8 -5 -9 -3 -4 6 6 10 4 12 -8 7 -10 -3 -17 -2 -17 3 0 13 27 13
35 1z m-281 -36 c-23 -17 -34 -19 -34 -4 0 5 4 8 9 4 5 -3 12 -1 16 5 3 5 11
10 18 10 6 0 2 -7 -9 -15z m-1602 -49 c5 -9 7 -22 4 -29 -2 -7 -5 -3 -5 8 -1
17 -3 18 -12 5 -8 -11 -9 -9 -3 10 6 22 5 23 -9 11 -9 -7 -14 -17 -11 -22 3
-5 0 -9 -6 -9 -7 0 -9 8 -5 20 7 24 -1 26 -21 5 -8 -8 -22 -11 -31 -8 -10 4
-14 2 -9 -5 9 -15 -14 -26 -27 -13 -9 9 -8 11 6 5 12 -4 17 -2 15 7 -2 8 5 14
14 14 10 0 22 5 29 12 16 16 60 9 71 -11z m38 9 c0 -12 -19 -12 -23 0 -4 9 -1
12 9 8 7 -3 14 -7 14 -8z m24 -17 c-11 -5 -28 -21 -37 -36 -9 -15 -17 -21 -17
-14 0 7 11 24 24 37 13 13 21 27 18 30 -4 3 2 3 13 -1 18 -7 18 -8 -1 -16z
m1376 3 c0 -5 9 -12 19 -16 11 -3 22 -13 25 -21 3 -9 -8 -4 -29 12 -37 28 -41
34 -25 34 6 0 10 -4 10 -9z m-130 -43 c17 -17 28 -33 25 -36 -3 -3 -6 -3 -7
-1 -2 2 -16 19 -32 37 -38 41 -26 42 14 0z m-1365 12 c4 -6 11 -8 16 -5 5 4
17 2 26 -4 15 -8 12 -9 -12 -6 -16 2 -32 4 -35 5 -3 2 -8 2 -12 1 -5 0 -8 4
-8 9 0 13 17 13 25 0z m117 -8 c-7 -2 -10 -7 -7 -12 3 -4 -2 -10 -10 -13 -12
-5 -12 -2 -3 18 6 13 16 21 21 18 8 -5 7 -8 -1 -11z m108 8 c0 -5 -5 -10 -11
-10 -5 0 -7 5 -4 10 3 6 8 10 11 10 2 0 4 -4 4 -10z m-65 -20 c4 -11 11 -18
16 -15 5 4 9 1 9 -4 0 -19 -17 -12 -34 14 -9 14 -12 25 -7 25 5 0 13 -9 16
-20z m35 16 c0 -3 -4 -8 -10 -11 -5 -3 -10 -1 -10 4 0 6 5 11 10 11 6 0 10 -2
10 -4z m1060 -16 c-5 -10 -7 -20 -4 -23 3 -3 -3 -14 -14 -25 -17 -17 -20 -17
-29 -3 -6 11 -5 24 4 41 9 17 13 20 13 8 0 -9 -5 -20 -10 -23 -6 -4 -8 -11 -5
-16 10 -15 33 14 29 37 -2 13 1 21 11 21 10 0 11 -5 5 -17z m-86 -1 c-2 -4
-15 -6 -30 -6 -14 0 -21 2 -15 6 5 4 19 7 30 7 11 0 18 -3 15 -7z m179 -13 c9
-10 17 -23 17 -28 0 -5 -11 4 -25 19 -13 15 -25 22 -25 16 0 -7 -5 -13 -11
-13 -5 0 -8 4 -4 9 3 5 -3 12 -12 14 -10 3 -4 4 12 4 17 -1 38 -10 48 -21z
m-1209 -2 c3 -8 2 -12 -4 -9 -6 3 -10 10 -10 16 0 14 7 11 14 -7z m86 -5 c0
-4 -7 -6 -15 -3 -8 4 -15 10 -15 15 0 4 7 6 15 3 8 -4 15 -10 15 -15z m353 -9
c10 -9 -3 -41 -14 -34 -11 7 -11 -7 0 -25 7 -11 12 -8 23 14 l15 27 26 -25
c31 -28 35 -42 8 -25 -11 7 -17 16 -15 20 3 4 -2 8 -10 8 -19 0 -20 -11 -3
-30 10 -12 9 -12 -4 -2 -9 6 -19 9 -23 5 -3 -4 -12 -8 -19 -9 -17 -2 -16 48 1
54 20 6 14 22 -9 22 -11 0 -17 -4 -14 -10 3 -5 2 -10 -4 -10 -5 0 -8 -12 -5
-27 2 -16 1 -23 -4 -16 -5 8 -13 9 -22 3 -22 -14 -28 -12 -40 10 -7 14 -7 20
0 20 5 0 10 -7 10 -15 0 -30 43 -3 48 30 2 18 0 17 -18 -5 l-22 -25 18 32 c15
27 22 31 43 26 15 -3 30 -9 34 -13z m419 -52 c11 -10 16 -18 12 -18 -13 1 -94
77 -88 83 3 3 17 -7 31 -22 13 -14 34 -34 45 -43z m64 48 c2 -13 1 -13 -3 -1
-2 8 -9 13 -14 9 -5 -3 -7 -10 -4 -15 4 -5 1 -9 -4 -9 -13 0 -13 3 -5 25 8 20
28 14 30 -9z m224 20 c0 -3 -4 -8 -10 -11 -5 -3 -10 -1 -10 4 0 6 5 11 10 11
6 0 10 -2 10 -4z m-1043 -28 c-3 -8 -6 -5 -6 6 -1 11 2 17 5 13 3 -3 4 -12 1
-19z m33 13 c0 -6 -4 -12 -8 -15 -5 -3 -9 1 -9 9 0 8 4 15 9 15 4 0 8 -4 8 -9z
m840 -1 c0 -5 -2 -10 -4 -10 -3 0 -8 5 -11 10 -3 6 -1 10 4 10 6 0 11 -4 11
-10z m34 -5 c-4 -8 -10 -15 -15 -15 -4 0 -6 7 -3 15 4 8 10 15 15 15 4 0 6 -7
3 -15z m-840 -10 c-10 -8 -23 -15 -28 -15 -6 0 -1 7 10 15 10 8 23 15 28 15 6
0 1 -7 -10 -15z m343 -2 c0 -7 -4 -13 -9 -13 -4 0 -8 5 -8 11 0 5 -4 8 -8 5
-4 -2 -14 -1 -21 4 -9 5 -3 7 16 7 17 -1 30 -7 30 -14z m27 2 c-4 -8 -1 -15 5
-15 6 0 11 4 11 8 0 5 7 9 16 9 14 0 14 -2 -2 -14 -10 -7 -21 -13 -25 -13 -12
0 -21 19 -14 30 9 15 15 12 9 -5z m501 5 c-3 -5 -1 -10 4 -10 6 0 11 -5 11
-10 0 -6 -8 -5 -19 2 -19 12 -19 28 0 28 6 0 7 -4 4 -10z m125 6 c0 -3 -4 -8
-10 -11 -5 -3 -10 -1 -10 4 0 6 5 11 10 11 6 0 10 -2 10 -4z m34 -4 c3 -5 -1
-9 -9 -9 -8 0 -15 4 -15 9 0 4 4 8 9 8 6 0 12 -4 15 -8z m-570 -17 c11 -8 16
-15 10 -15 -5 0 -18 7 -28 15 -11 8 -16 15 -10 15 5 0 18 -7 28 -15z m50 6
c-13 -9 -16 -31 -4 -31 5 0 14 8 19 18 10 16 12 16 25 0 7 -10 19 -18 27 -18
11 0 11 2 -1 10 -8 5 -10 10 -5 10 6 0 16 -4 24 -9 11 -7 9 -10 -8 -16 -13 -4
-25 -4 -28 -1 -4 3 -16 -2 -27 -11 -21 -18 -21 -18 -2 5 11 12 17 24 14 27 -3
3 -11 -1 -18 -10 -16 -20 -44 -20 -36 0 3 8 -2 19 -11 23 -13 8 -10 10 12 10
15 0 23 -3 19 -7z m126 -22 c19 -17 29 -28 23 -24 -7 3 -13 1 -13 -4 0 -6 -5
-11 -11 -11 -8 0 -8 5 1 15 8 9 9 15 2 15 -6 0 -14 -4 -17 -10 -3 -5 -11 -10
-18 -10 -6 0 -3 6 8 13 17 13 17 15 -6 30 -13 10 -19 17 -14 17 6 0 26 -14 45
-31z m150 21 c0 -5 -4 -10 -10 -10 -5 0 -10 5 -10 10 0 6 5 10 10 10 6 0 10
-4 10 -10z m170 -10 c-24 -15 -36 -11 -14 4 10 8 21 12 24 10 2 -3 -2 -9 -10
-14z m-145 0 c3 -5 1 -10 -4 -10 -6 0 -11 5 -11 10 0 6 2 10 4 10 3 0 8 -4 11
-10z m-735 -10 c18 -12 2 -12 -25 0 -13 6 -15 9 -5 9 8 0 22 -4 30 -9z m385
-15 c17 -13 25 -24 18 -25 -6 0 -14 6 -17 13 -5 10 -7 10 -12 0 -3 -7 -10 -13
-16 -13 -7 0 -7 5 1 13 6 8 8 17 4 20 -9 10 -25 9 -19 -1 2 -4 0 -14 -6 -22
-8 -12 -9 -12 -4 3 3 9 1 17 -4 17 -5 0 -13 -8 -19 -17 -9 -17 -11 -16 -31 5
-11 12 -16 22 -10 22 6 0 13 -7 16 -15 5 -13 10 -12 31 5 32 25 32 25 68 -5z
m299 16 c4 -5 -3 -7 -14 -4 -23 6 -26 13 -6 13 8 0 17 -4 20 -9z m86 -1 c0 -5
-2 -10 -4 -10 -3 0 -8 5 -11 10 -3 6 -1 10 4 10 6 0 11 -4 11 -10z"/>
<path d="M2396 3292 c-5 -9 -2 -39 5 -46 3 -3 5 8 4 24 0 32 -1 35 -9 22z"/>
<path d="M2424 3238 l-19 -23 23 19 c21 18 27 26 19 26 -2 0 -12 -10 -23 -22z"/>
<path d="M2593 3245 c0 -8 4 -12 9 -9 5 3 6 10 3 15 -9 13 -12 11 -12 -6z"/>
<path d="M2410 3198 c0 -4 4 -8 9 -8 6 0 12 4 15 8 3 5 -1 9 -9 9 -8 0 -15 -4
-15 -9z"/>
<path d="M2440 3166 c0 -2 8 -10 18 -17 15 -13 16 -12 3 4 -13 16 -21 21 -21
13z"/>
<path d="M2470 3166 c0 -2 7 -7 16 -10 8 -3 12 -2 9 4 -6 10 -25 14 -25 6z"/>
<path d="M2399 3133 c-13 -16 -12 -17 4 -4 9 7 17 15 17 17 0 8 -8 3 -21 -13z"/>
<path d="M2496 3127 c3 -10 9 -15 12 -12 3 3 0 11 -7 18 -10 9 -11 8 -5 -6z"/>
<path d="M2393 3053 c3 -32 5 -60 6 -62 2 -9 30 34 31 47 0 6 -6 12 -14 12 -9
0 -12 10 -10 30 2 17 -1 30 -7 30 -6 0 -9 -21 -6 -57z"/>
<path d="M2450 3096 c0 -2 8 -10 18 -17 15 -13 16 -12 3 4 -13 16 -21 21 -21
13z"/>
<path d="M2494 3089 c-3 -6 -2 -15 3 -20 5 -5 9 -1 9 11 0 23 -2 24 -12 9z"/>
<path d="M2536 3073 c-6 -14 -5 -15 5 -6 7 7 10 15 7 18 -3 3 -9 -2 -12 -12z"/>
<path d="M2536 3038 c3 -5 10 -6 15 -3 13 9 11 12 -6 12 -8 0 -12 -4 -9 -9z"/>
<path d="M2466 3018 c3 -5 10 -6 15 -3 13 9 11 12 -6 12 -8 0 -12 -4 -9 -9z"/>
<path d="M2512 3011 c7 -9 13 -18 15 -20 1 -2 1 5 0 16 0 11 -7 20 -14 20 -10
0 -10 -4 -1 -16z"/>
<path d="M2441 2983 c-10 -21 -9 -28 1 -34 19 -12 23 -11 49 11 15 12 17 18 8
14 -10 -3 -23 3 -31 15 -15 21 -15 21 -27 -6z m30 -10 c13 -16 12 -17 -3 -4
-10 7 -18 15 -18 17 0 8 8 3 21 -13z"/>
<path d="M3313 2991 c0 -11 5 -18 9 -15 4 3 5 11 1 19 -7 21 -12 19 -10 -4z"/>
<path d="M3350 3006 c0 -2 7 -7 16 -10 8 -3 12 -2 9 4 -6 10 -25 14 -25 6z"/>
<path d="M2682 2984 c10 -10 20 -16 22 -13 3 3 -5 11 -17 18 -21 13 -21 12 -5
-5z"/>
<path d="M2550 2982 c0 -5 7 -9 15 -9 8 0 12 4 9 9 -3 4 -9 8 -15 8 -5 0 -9
-4 -9 -8z"/>
<path d="M3239 2973 c-13 -16 -12 -17 4 -4 16 13 21 21 13 21 -2 0 -10 -8 -17
-17z"/>
<path d="M2654 2960 c0 -13 4 -16 10 -10 7 7 7 13 0 20 -6 6 -10 3 -10 -10z"/>
<path d="M3175 2969 c-4 -6 -5 -12 -2 -15 2 -3 7 2 10 11 7 17 1 20 -8 4z"/>
<path d="M3369 2963 c-13 -16 -12 -17 4 -4 16 13 21 21 13 21 -2 0 -10 -8 -17
-17z"/>
<path d="M3455 2970 c-4 -6 -11 -8 -16 -5 -5 4 -9 1 -9 -4 0 -16 16 -13 30 4
7 8 10 15 7 15 -3 0 -9 -5 -12 -10z"/>
<path d="M2536 2947 c3 -10 9 -15 12 -12 3 3 0 11 -7 18 -10 9 -11 8 -5 -6z"/>
<path d="M2794 2945 c1 -8 8 -21 16 -28 12 -10 12 -9 2 4 -6 9 -9 18 -6 21 3
3 1 9 -4 12 -6 3 -9 -1 -8 -9z"/>
<path d="M3274 2946 c1 -8 5 -18 8 -22 4 -3 5 1 4 10 -1 8 -5 18 -8 22 -4 3
-5 -1 -4 -10z"/>
<path d="M2480 2940 c-18 -11 -9 -21 24 -24 30 -4 32 0 12 20 -17 16 -17 16
-36 4z"/>
<path d="M2746 2942 c-2 -4 4 -8 14 -8 10 0 16 4 14 8 -3 4 -9 8 -14 8 -5 0
-11 -4 -14 -8z"/>
<path d="M2850 2940 c0 -5 5 -10 11 -10 5 0 7 5 4 10 -3 6 -8 10 -11 10 -2 0
-4 -4 -4 -10z"/>
<path d="M2975 2940 c-3 -5 -1 -10 4 -10 6 0 11 5 11 10 0 6 -2 10 -4 10 -3 0
-8 -4 -11 -10z"/>
<path d="M3072 2931 c7 -9 13 -18 15 -20 1 -2 1 5 0 16 0 11 -7 20 -14 20 -10
0 -10 -4 -1 -16z"/>
<path d="M3226 2942 c-2 -4 4 -8 14 -8 10 0 16 4 14 8 -3 4 -9 8 -14 8 -5 0
-11 -4 -14 -8z"/>
<path d="M3300 2946 c0 -2 8 -10 18 -17 15 -13 16 -12 3 4 -13 16 -21 21 -21
13z"/>
<path d="M3166 2925 c-18 -14 -18 -14 1 -12 11 0 20 7 20 14 0 7 -1 13 -1 13
-1 0 -9 -7 -20 -15z"/>
<path d="M2670 2925 c0 -7 30 -13 34 -7 3 4 -4 9 -15 9 -10 1 -19 0 -19 -2z"/>
<path d="M2910 2920 c0 -5 5 -10 11 -10 5 0 7 5 4 10 -3 6 -8 10 -11 10 -2 0
-4 -4 -4 -10z"/>
<path d="M3350 2898 c0 -4 4 -8 9 -8 6 0 12 4 15 8 3 5 -1 9 -9 9 -8 0 -15 -4
-15 -9z"/>
<path d="M2699 2898 c-5 -18 -6 -38 -1 -34 7 8 12 36 6 36 -2 0 -4 -1 -5 -2z"/>
<path d="M2815 2890 c-4 -6 -11 -8 -16 -5 -5 4 -9 1 -9 -4 0 -16 16 -13 30 4
7 8 10 15 7 15 -3 0 -9 -5 -12 -10z"/>
<path d="M2935 2890 c-4 -6 -11 -7 -17 -4 -7 4 -8 2 -4 -5 6 -9 11 -9 22 0 14
11 18 19 10 19 -3 0 -8 -5 -11 -10z"/>
<path d="M3014 2886 c1 -8 5 -18 8 -22 4 -3 5 1 4 10 -1 8 -5 18 -8 22 -4 3
-5 -1 -4 -10z"/>
<path d="M3130 2896 c0 -2 8 -10 18 -17 15 -13 16 -12 3 4 -13 16 -21 21 -21
13z"/>
<path d="M2826 2862 c-2 -4 4 -8 14 -8 10 0 16 4 14 8 -3 4 -9 8 -14 8 -5 0
-11 -4 -14 -8z"/>
<path d="M2718 2844 c-4 -4 13 -27 37 -52 25 -25 48 -42 52 -39 3 4 -8 20 -25
36 -16 16 -27 33 -24 37 4 4 -1 4 -10 1 -11 -4 -18 0 -20 9 -2 9 -6 12 -10 8z"/>
<path d="M3000 2840 c-12 -7 -10 -9 7 -7 12 0 19 5 17 9 -6 10 -6 10 -24 -2z"/>
<path d="M2851 2814 c0 -11 3 -14 6 -6 3 7 2 16 -1 19 -3 4 -6 -2 -5 -13z"/>
<path d="M2941 2814 c0 -11 3 -14 6 -6 3 7 2 16 -1 19 -3 4 -6 -2 -5 -13z"/>
<path d="M3577 2933 c-4 -3 -7 -11 -7 -17 0 -6 5 -5 12 2 6 6 9 14 7 17 -3 3
-9 2 -12 -2z"/>
<path d="M3619 2927 c0 -1 -2 -13 -5 -26 -4 -24 -4 -24 16 -6 11 10 20 19 20
20 0 4 -30 15 -31 12z"/>
<path d="M3579 2873 c-13 -16 -12 -17 4 -4 16 13 21 21 13 21 -2 0 -10 -8 -17
-17z"/>
<path d="M1510 3886 c0 -2 7 -7 16 -10 8 -3 12 -2 9 4 -6 10 -25 14 -25 6z"/>
<path d="M1485 3860 c-3 -6 1 -7 9 -4 18 7 21 14 7 14 -6 0 -13 -4 -16 -10z"/>
<path d="M1453 3845 c0 -8 4 -15 9 -15 4 0 8 4 8 9 0 6 -4 12 -8 15 -5 3 -9
-1 -9 -9z"/>
<path d="M1395 3840 c-3 -5 -1 -10 4 -10 6 0 11 5 11 10 0 6 -2 10 -4 10 -3 0
-8 -4 -11 -10z"/>
<path d="M1401 3636 c-9 -10 -8 -15 3 -19 11 -4 13 -1 9 10 -5 12 -3 14 7 8 9
-5 11 -4 6 3 -9 15 -11 15 -25 -2z"/>
<path d="M1475 3620 c3 -13 -1 -31 -8 -39 -11 -14 -10 -14 5 -2 17 12 19 43 5
57 -3 4 -4 -4 -2 -16z"/>
<path d="M1436 3622 c-3 -5 1 -9 9 -9 8 0 12 4 9 9 -3 4 -7 8 -9 8 -2 0 -6 -4
-9 -8z"/>
<path d="M1506 3618 c3 -5 10 -6 15 -3 13 9 11 12 -6 12 -8 0 -12 -4 -9 -9z"/>
<path d="M1390 3574 c6 -6 6 -15 2 -19 -4 -5 -1 -5 6 -1 7 4 10 11 7 16 -3 4
1 10 7 13 7 3 3 4 -9 4 -15 -1 -19 -5 -13 -13z"/>
<path d="M1433 3583 c4 -3 -1 -16 -10 -27 -18 -21 -18 -21 4 -2 20 16 23 36 6
36 -4 0 -3 -3 0 -7z"/>
<path d="M1470 3556 c0 -2 8 -10 18 -17 15 -13 16 -12 3 4 -13 16 -21 21 -21
13z"/>
<path d="M1439 3533 c-13 -16 -12 -17 4 -4 9 7 17 15 17 17 0 8 -8 3 -21 -13z"/>
<path d="M1455 3521 c-3 -5 -2 -12 3 -15 5 -3 9 1 9 9 0 17 -3 19 -12 6z"/>
<path d="M1390 3479 c0 -5 5 -7 10 -4 6 3 10 8 10 11 0 2 -4 4 -10 4 -5 0 -10
-5 -10 -11z"/>
<path d="M4280 3080 c0 -18 418 -159 538 -182 112 -21 179 19 173 104 -1 23
-46 66 -74 73 -30 7 -637 11 -637 5z"/>
<path d="M6225 2799 c-9 -14 -2 -20 14 -10 8 6 9 11 3 15 -6 3 -14 1 -17 -5z"/>
<path d="M3861 2679 c11 -21 24 -27 14 -6 -4 6 2 2 12 -9 19 -21 20 -21 31 -3
14 23 15 29 3 29 -5 0 -12 -8 -14 -17 -4 -15 -5 -16 -6 -2 0 9 -12 19 -26 21
-21 4 -23 3 -14 -13z"/>
<path d="M4037 2654 c-4 -4 -7 -14 -7 -23 0 -11 3 -12 11 -4 6 6 10 16 7 23
-2 6 -7 8 -11 4z"/>
<path d="M3827 2639 c7 -7 15 -10 18 -7 3 3 -2 9 -12 12 -14 6 -15 5 -6 -5z"/>
<path d="M4056 2633 c-4 -9 0 -23 9 -32 15 -15 18 -14 36 8 10 12 16 28 12 34
-4 7 -10 2 -16 -11 -10 -23 -27 -30 -27 -12 0 6 5 10 10 10 6 0 10 5 10 10 0
17 -27 11 -34 -7z"/>
<path d="M5605 2579 c-7 -11 35 -63 43 -54 3 3 11 0 18 -6 8 -7 14 -7 19 1 3
5 2 10 -2 10 -5 0 -17 14 -26 30 -18 31 -40 39 -52 19z m33 -20 c19 -30 11
-32 -11 -3 -10 13 -14 24 -10 24 5 0 14 -9 21 -21z"/>
<path d="M4355 2570 c-3 -5 -1 -10 4 -10 6 0 11 5 11 10 0 6 -2 10 -4 10 -3 0
-8 -4 -11 -10z"/>
<path d="M4380 2570 c0 -5 5 -10 11 -10 5 0 7 5 4 10 -3 6 -8 10 -11 10 -2 0
-4 -4 -4 -10z"/>
<path d="M5267 2559 c7 -7 15 -10 18 -7 3 3 -2 9 -12 12 -14 6 -15 5 -6 -5z"/>
<path d="M5155 2521 c-3 -5 -1 -12 5 -16 5 -3 10 1 10 9 0 18 -6 21 -15 7z"/>
<path d="M5191 2521 c-8 -6 -9 -11 -3 -15 6 -3 14 -1 17 5 9 14 2 20 -14 10z"/>
<path d="M4645 2507 c10 -8 25 -12 33 -10 16 7 14 9 -23 17 -28 7 -29 6 -10
-7z"/>
<path d="M2213 2065 c0 -8 4 -12 9 -9 5 3 6 10 3 15 -9 13 -12 11 -12 -6z"/>
<path d="M2646 2058 c3 -5 10 -6 15 -3 13 9 11 12 -6 12 -8 0 -12 -4 -9 -9z"/>
<path d="M2333 2045 c0 -8 4 -12 9 -9 5 3 6 10 3 15 -9 13 -12 11 -12 -6z"/>
<path d="M2433 2045 c0 -8 4 -12 9 -9 5 3 6 10 3 15 -9 13 -12 11 -12 -6z"/>
<path d="M1513 1957 c-8 -13 169 -225 300 -359 48 -51 61 -58 94 -58 21 0 973
-1 2117 -1 l2079 -1 71 74 c39 40 96 103 126 138 30 36 57 67 60 70 14 13 111
140 108 141 -16 6 -4951 2 -4955 -4z m2472 -217 c23 -25 15 -59 -17 -83 l-28
-21 -27 21 c-36 26 -41 65 -13 91 24 22 61 19 85 -8z m1048 22 c8 -4 -25 -63
-56 -99 -21 -23 -43 -21 -64 5 -19 23 -16 37 16 71 23 24 37 31 63 29 18 -1
37 -3 41 -6z m-2149 -24 c9 -12 16 -28 16 -34 0 -23 -36 -55 -65 -57 -25 -2
-33 4 -47 32 -15 29 -15 36 -3 55 21 32 78 34 99 4z m628 0 c15 -23 4 -60 -23
-81 -22 -16 -30 -17 -48 -7 -31 16 -43 54 -29 86 11 23 16 26 52 21 21 -3 43
-11 48 -19z m960 0 c17 -27 4 -72 -24 -86 -35 -16 -62 -3 -76 37 -16 45 9 75
56 67 19 -3 39 -11 44 -18z"/>
<path d="M2024 1428 c-8 -13 10 -29 141 -124 150 -109 252 -170 430 -259 294
-145 558 -229 899 -285 120 -20 158 -21 520 -17 215 2 407 7 426 10 19 4 46 9
60 12 14 2 41 7 60 10 61 9 282 65 385 98 55 17 105 31 110 32 6 1 19 5 30 10
11 4 47 19 80 32 86 34 88 35 220 99 66 32 155 79 198 106 43 26 80 48 83 48
17 0 291 208 298 226 5 12 -264 14 -1964 14 -1479 0 -1971 -3 -1976 -12z
m2015 -127 c17 -24 19 -32 9 -43 -7 -7 -33 -38 -58 -68 -52 -63 -74 -83 -78
-69 -2 5 -7 7 -12 4 -4 -2 -15 4 -25 15 -16 18 -16 20 -1 26 9 3 14 9 11 13
-2 5 19 34 48 67 29 32 56 64 62 71 15 18 22 16 44 -16z m988 -117 c16 -43
-27 -91 -73 -80 -49 13 -57 92 -12 113 26 12 75 -7 85 -33z m-1517 21 c6 -4 9
-13 6 -20 -3 -8 0 -15 7 -18 16 -5 -17 -54 -42 -62 -50 -15 -90 41 -62 88 13
23 21 27 47 24 18 -3 37 -8 44 -12z m954 -1 c26 -26 24 -60 -6 -86 -38 -33
-88 -6 -88 48 0 50 59 74 94 38z"/>
</g>
</svg>
